<?xml version="1.0" encoding="UTF-8"?>
<svg xmlns="http://www.w3.org/2000/svg" xmlns:xlink="http://www.w3.org/1999/xlink" width="174.168pt" height="167.912pt" viewBox="0 0 174.168 167.912" version="1.1">
<g id="surface1">
<path style="fill:none;stroke-width:0.19925;stroke-linecap:butt;stroke-linejoin:miter;stroke:rgb(50%,50%,50%);stroke-opacity:1;stroke-miterlimit:10;" d="M -59.528875 -56.693625 L 87.873469 -56.693625 M -59.528875 -28.345969 L 87.873469 -28.345969 M -59.528875 0.0016875 L 87.873469 0.0016875 M -59.528875 28.345438 L 87.873469 28.345438 M -59.528875 56.693094 L 87.873469 56.693094 M -59.528875 85.04075 L 87.873469 85.04075 M -56.692937 -59.529562 L -56.692937 87.876688 M -28.345281 -59.529562 L -28.345281 87.876688 M -0.00153125 -59.529562 L -0.00153125 87.876688 M 28.346125 -59.529562 L 28.346125 87.876688 M 56.693781 -59.529562 L 56.693781 87.876688 M 85.041438 -59.529562 L 85.041438 87.876688 " transform="matrix(1,0,0,-1,76.232,98.322)"/>
<path style="fill:none;stroke-width:0.3985;stroke-linecap:butt;stroke-linejoin:miter;stroke:rgb(0%,0%,100%);stroke-opacity:1;stroke-miterlimit:10;" d="M -56.692937 -42.52175 C -56.692937 -42.52175 -56.462469 -42.287375 -56.372625 -42.201437 C -56.286687 -42.111594 -56.142156 -41.970969 -56.056219 -41.881125 C -55.966375 -41.791281 -55.821844 -41.650656 -55.735906 -41.560812 C -55.646062 -41.470969 -55.505437 -41.330344 -55.415594 -41.2405 C -55.32575 -41.154562 -55.185125 -41.010031 -55.095281 -40.920187 C -55.005437 -40.83425 -54.864812 -40.689719 -54.774969 -40.603781 C -54.685125 -40.513937 -54.5445 -40.369406 -54.454656 -40.283469 C -54.368719 -40.193625 -54.224187 -40.053 -54.134344 -39.963156 C -54.048406 -39.873312 -53.903875 -39.732687 -53.817937 -39.642844 C -53.728094 -39.553 -53.583562 -39.412375 -53.497625 -39.322531 C -53.407781 -39.232687 -53.267156 -39.092062 -53.177312 -39.002219 C -53.087469 -38.916281 -52.946844 -38.77175 -52.857 -38.681906 C -52.767156 -38.595969 -52.626531 -38.451437 -52.536687 -38.3655 C -52.446844 -38.275656 -52.306219 -38.135031 -52.216375 -38.045187 C -52.130437 -37.955344 -51.985906 -37.814719 -51.899969 -37.724875 C -51.810125 -37.635031 -51.665594 -37.494406 -51.579656 -37.404562 C -51.489812 -37.314719 -51.349187 -37.174094 -51.259344 -37.08425 C -51.1695 -36.998312 -51.028875 -36.853781 -50.939031 -36.763937 C -50.849187 -36.678 -50.708562 -36.533469 -50.618719 -36.447531 C -50.528875 -36.357687 -50.38825 -36.217062 -50.298406 -36.127219 C -50.212469 -36.037375 -50.067937 -35.89675 -49.978094 -35.806906 C -49.892156 -35.717062 -49.747625 -35.576437 -49.661687 -35.486594 C -49.571844 -35.39675 -49.427312 -35.256125 -49.341375 -35.166281 C -49.251531 -35.076437 -49.110906 -34.935812 -49.021062 -34.845969 C -48.931219 -34.760031 -48.790594 -34.6155 -48.70075 -34.529562 C -48.610906 -34.439719 -48.470281 -34.295187 -48.380437 -34.20925 C -48.2945 -34.119406 -48.149969 -33.978781 -48.060125 -33.888937 C -47.974187 -33.799094 -47.829656 -33.658469 -47.743719 -33.568625 C -47.653875 -33.478781 -47.509344 -33.338156 -47.423406 -33.248312 C -47.333562 -33.158469 -47.192937 -33.017844 -47.103094 -32.928 C -47.01325 -32.842062 -46.872625 -32.697531 -46.782781 -32.607687 C -46.692937 -32.52175 -46.552312 -32.377219 -46.462469 -32.291281 C -46.372625 -32.201437 -46.232 -32.056906 -46.142156 -31.970969 C -46.056219 -31.881125 -45.911687 -31.7405 -45.82575 -31.650656 C -45.735906 -31.560812 -45.591375 -31.420187 -45.505437 -31.330344 C -45.415594 -31.2405 -45.271062 -31.099875 -45.185125 -31.010031 C -45.095281 -30.920187 -44.954656 -30.779562 -44.864812 -30.689719 C -44.774969 -30.603781 -44.634344 -30.45925 -44.5445 -30.373312 C -44.454656 -30.283469 -44.314031 -30.138937 -44.224187 -30.053 C -44.13825 -29.963156 -43.993719 -29.822531 -43.903875 -29.732687 C -43.817937 -29.642844 -43.673406 -29.502219 -43.587469 -29.412375 C -43.497625 -29.322531 -43.353094 -29.181906 -43.267156 -29.092062 C -43.177312 -29.006125 -43.036687 -28.861594 -42.946844 -28.77175 C -42.857 -28.685812 -42.716375 -28.541281 -42.626531 -28.451437 C -42.536687 -28.3655 -42.396062 -28.220969 -42.306219 -28.135031 C -42.216375 -28.045187 -42.07575 -27.900656 -41.985906 -27.814719 C -41.899969 -27.724875 -41.755437 -27.58425 -41.6695 -27.494406 C -41.579656 -27.404562 -41.435125 -27.263937 -41.349187 -27.174094 C -41.259344 -27.08425 -41.118719 -26.943625 -41.028875 -26.853781 C -40.939031 -26.767844 -40.798406 -26.623312 -40.708562 -26.533469 C -40.618719 -26.447531 -40.478094 -26.303 -40.38825 -26.217062 C -40.298406 -26.127219 -40.157781 -25.982687 -40.067937 -25.89675 C -39.982 -25.806906 -39.837469 -25.666281 -39.751531 -25.576437 C -39.661687 -25.486594 -39.517156 -25.345969 -39.431219 -25.256125 C -39.341375 -25.166281 -39.196844 -25.025656 -39.110906 -24.935812 C -39.021062 -24.849875 -38.880437 -24.705344 -38.790594 -24.6155 C -38.70075 -24.529562 -38.560125 -24.385031 -38.470281 -24.299094 C -38.380437 -24.20925 -38.239812 -24.064719 -38.149969 -23.978781 C -38.060125 -23.888937 -37.9195 -23.748312 -37.829656 -23.658469 C -37.743719 -23.568625 -37.599187 -23.428 -37.51325 -23.338156 C -37.423406 -23.248312 -37.278875 -23.107687 -37.192937 -23.017844 C -37.103094 -22.928 -36.962469 -22.787375 -36.872625 -22.697531 C -36.782781 -22.611594 -36.642156 -22.467062 -36.552312 -22.377219 C -36.462469 -22.291281 -36.321844 -22.14675 -36.232 -22.060812 C -36.146062 -21.970969 -36.001531 -21.830344 -35.911687 -21.7405 C -35.82575 -21.650656 -35.681219 -21.510031 -35.595281 -21.420187 C -35.505437 -21.330344 -35.360906 -21.189719 -35.274969 -21.099875 C -35.185125 -21.010031 -35.040594 -20.869406 -34.954656 -20.779562 C -34.864812 -20.693625 -34.724187 -20.549094 -34.634344 -20.45925 C -34.5445 -20.373312 -34.403875 -20.228781 -34.314031 -20.142844 C -34.224187 -20.053 -34.083562 -19.908469 -33.993719 -19.822531 C -33.907781 -19.732687 -33.76325 -19.592062 -33.673406 -19.502219 C -33.587469 -19.412375 -33.442937 -19.27175 -33.357 -19.181906 C -33.267156 -19.092062 -33.122625 -18.951437 -33.036687 -18.861594 C -32.946844 -18.77175 -32.806219 -18.631125 -32.716375 -18.541281 C -32.626531 -18.455344 -32.485906 -18.310812 -32.396062 -18.220969 C -32.306219 -18.135031 -32.165594 -17.9905 -32.07575 -17.904562 C -31.989812 -17.814719 -31.845281 -17.674094 -31.755437 -17.58425 C -31.6695 -17.494406 -31.524969 -17.353781 -31.439031 -17.263937 C -31.349187 -17.174094 -31.204656 -17.033469 -31.118719 -16.943625 C -31.028875 -16.853781 -30.88825 -16.713156 -30.798406 -16.623312 C -30.708562 -16.537375 -30.567937 -16.392844 -30.478094 -16.303 C -30.38825 -16.217062 -30.247625 -16.072531 -30.157781 -15.986594 C -30.067937 -15.89675 -29.927312 -15.752219 -29.837469 -15.666281 C -29.751531 -15.576437 -29.607 -15.435812 -29.517156 -15.345969 C -29.431219 -15.256125 -29.286687 -15.1155 -29.20075 -15.025656 C -29.110906 -14.935812 -28.970281 -14.795187 -28.880437 -14.705344 C -28.790594 -14.619406 -28.649969 -14.474875 -28.560125 -14.385031 C -28.470281 -14.299094 -28.329656 -14.154562 -28.239812 -14.068625 C -28.149969 -13.978781 -28.009344 -13.83425 -27.9195 -13.748312 C -27.829656 -13.658469 -27.689031 -13.513937 -27.599187 -13.428 C -27.51325 -13.338156 -27.368719 -13.197531 -27.282781 -13.107687 C -27.192937 -13.017844 -27.048406 -12.877219 -26.962469 -12.787375 C -26.872625 -12.697531 -26.732 -12.556906 -26.642156 -12.467062 C -26.552312 -12.381125 -26.411687 -12.236594 -26.321844 -12.14675 C -26.232 -12.060812 -26.091375 -11.916281 -26.001531 -11.830344 C -25.915594 -11.7405 -25.771062 -11.599875 -25.681219 -11.510031 C -25.595281 -11.420187 -25.45075 -11.279562 -25.364812 -11.189719 C -25.274969 -11.099875 -25.130437 -10.95925 -25.0445 -10.869406 C -24.954656 -10.779562 -24.814031 -10.638937 -24.724187 -10.549094 C -24.634344 -10.463156 -24.493719 -10.318625 -24.403875 -10.228781 C -24.314031 -10.142844 -24.173406 -9.998312 -24.083562 -9.912375 C -23.993719 -9.822531 -23.853094 -9.678 -23.76325 -9.592062 C -23.677312 -9.502219 -23.532781 -9.361594 -23.442937 -9.27175 C -23.357 -9.181906 -23.212469 -9.041281 -23.126531 -8.951437 C -23.036687 -8.861594 -22.892156 -8.720969 -22.806219 -8.631125 C -22.716375 -8.541281 -22.57575 -8.400656 -22.485906 -8.310812 C -22.396062 -8.224875 -22.255437 -8.080344 -22.165594 -7.9905 C -22.07575 -7.904562 -21.935125 -7.760031 -21.845281 -7.674094 C -21.759344 -7.58425 -21.614812 -7.443625 -21.524969 -7.353781 C -21.439031 -7.263937 -21.2945 -7.123312 -21.208562 -7.033469 C -21.118719 -6.943625 -20.974187 -6.803 -20.88825 -6.713156 C -20.798406 -6.623312 -20.657781 -6.482687 -20.567937 -6.392844 C -20.478094 -6.306906 -20.337469 -6.162375 -20.247625 -6.076437 C -20.157781 -5.986594 -20.017156 -5.842062 -19.927312 -5.756125 C -19.837469 -5.666281 -19.696844 -5.52175 -19.607 -5.435812 C -19.521062 -5.345969 -19.376531 -5.205344 -19.286687 -5.1155 C -19.20075 -5.025656 -19.056219 -4.885031 -18.970281 -4.795187 C -18.880437 -4.705344 -18.735906 -4.564719 -18.649969 -4.474875 C -18.560125 -4.385031 -18.4195 -4.244406 -18.329656 -4.154562 C -18.239812 -4.068625 -18.099187 -3.924094 -18.009344 -3.838156 C -17.9195 -3.748312 -17.778875 -3.603781 -17.689031 -3.517844 C -17.603094 -3.428 -17.458562 -3.287375 -17.368719 -3.197531 C -17.282781 -3.107687 -17.13825 -2.967062 -17.052312 -2.877219 C -16.962469 -2.787375 -16.817937 -2.64675 -16.732 -2.556906 C -16.642156 -2.467062 -16.501531 -2.326437 -16.411687 -2.236594 C -16.321844 -2.150656 -16.181219 -2.006125 -16.091375 -1.920187 C -16.001531 -1.830344 -15.860906 -1.685812 -15.771062 -1.599875 C -15.685125 -1.510031 -15.540594 -1.3655 -15.45075 -1.279562 C -15.364812 -1.189719 -15.220281 -1.049094 -15.130437 -0.95925 C -15.0445 -0.869406 -14.899969 -0.728781 -14.814031 -0.638937 C -14.724187 -0.549094 -14.583562 -0.408469 -14.493719 -0.318625 C -14.403875 -0.232687 -14.26325 -0.0881562 -14.173406 0.0016875 C -14.083562 0.087625 -13.942937 0.232156 -13.853094 0.318094 C -13.76325 0.407938 -13.622625 0.552469 -13.532781 0.638406 C -13.446844 0.72825 -13.302312 0.868875 -13.216375 0.958719 C -13.126531 1.048563 -12.982 1.189188 -12.896062 1.279031 C -12.806219 1.368875 -12.661687 1.5095 -12.57575 1.599344 C -12.485906 1.689188 -12.345281 1.829813 -12.255437 1.919656 C -12.165594 2.005594 -12.024969 2.150125 -11.935125 2.236063 C -11.845281 2.325906 -11.704656 2.470438 -11.614812 2.556375 C -11.528875 2.646219 -11.384344 2.786844 -11.2945 2.876688 C -11.208562 2.966531 -11.064031 3.107156 -10.978094 3.197 C -10.88825 3.286844 -10.743719 3.427469 -10.657781 3.517313 C -10.567937 3.607156 -10.427312 3.747781 -10.337469 3.837625 C -10.247625 3.923563 -10.107 4.068094 -10.017156 4.157938 C -9.927312 4.243875 -9.786687 4.388406 -9.696844 4.474344 C -9.610906 4.564188 -9.466375 4.708719 -9.376531 4.794656 C -9.290594 4.8845 -9.146062 5.025125 -9.060125 5.114969 C -8.970281 5.204813 -8.82575 5.345438 -8.739812 5.435281 C -8.649969 5.525125 -8.509344 5.66575 -8.4195 5.755594 C -8.329656 5.841531 -8.189031 5.986063 -8.099187 6.075906 C -8.009344 6.161844 -7.868719 6.306375 -7.778875 6.392313 C -7.689031 6.482156 -7.548406 6.626688 -7.458562 6.712625 C -7.372625 6.802469 -7.228094 6.943094 -7.13825 7.032938 C -7.052312 7.122781 -6.907781 7.263406 -6.821844 7.35325 C -6.732 7.443094 -6.587469 7.583719 -6.501531 7.673563 C -6.411687 7.763406 -6.271062 7.904031 -6.181219 7.993875 C -6.091375 8.079813 -5.95075 8.224344 -5.860906 8.310281 C -5.771062 8.400125 -5.630437 8.544656 -5.540594 8.630594 C -5.454656 8.720438 -5.310125 8.864969 -5.220281 8.950906 C -5.134344 9.04075 -4.989812 9.181375 -4.903875 9.271219 C -4.814031 9.361063 -4.6695 9.501688 -4.583562 9.591531 C -4.493719 9.681375 -4.353094 9.822 -4.26325 9.911844 C -4.173406 9.997781 -4.032781 10.142313 -3.942937 10.232156 C -3.853094 10.318094 -3.712469 10.462625 -3.622625 10.548563 C -3.532781 10.638406 -3.392156 10.779031 -3.302312 10.868875 C -3.216375 10.958719 -3.071844 11.099344 -2.982 11.189188 C -2.896062 11.279031 -2.751531 11.419656 -2.665594 11.5095 C -2.57575 11.599344 -2.431219 11.739969 -2.345281 11.829813 C -2.255437 11.919656 -2.114812 12.060281 -2.024969 12.150125 C -1.935125 12.236063 -1.7945 12.380594 -1.704656 12.466531 C -1.614812 12.556375 -1.474187 12.700906 -1.384344 12.786844 C -1.298406 12.876688 -1.153875 13.021219 -1.064031 13.107156 C -0.978094 13.197 -0.833562 13.337625 -0.747625 13.427469 C -0.657781 13.517313 -0.517156 13.657938 -0.427312 13.747781 C -0.337469 13.833719 -0.196844 13.97825 -0.107 14.068094 C -0.0171562 14.154031 0.123469 14.298563 0.213313 14.388406 C 0.303156 14.474344 0.443781 14.618875 0.533625 14.704813 C 0.623469 14.794656 0.764094 14.935281 0.853938 15.025125 C 0.939875 15.114969 1.084406 15.255594 1.170344 15.345438 C 1.260188 15.435281 1.404719 15.575906 1.490656 15.66575 C 1.5805 15.755594 1.721125 15.896219 1.810969 15.986063 C 1.900813 16.072 2.041438 16.216531 2.131281 16.306375 C 2.221125 16.392313 2.36175 16.536844 2.451594 16.622781 C 2.541438 16.712625 2.682063 16.85325 2.771906 16.943094 C 2.857844 17.032938 3.002375 17.173563 3.092219 17.263406 C 3.178156 17.35325 3.322688 17.493875 3.408625 17.583719 C 3.498469 17.673563 3.643 17.814188 3.728938 17.904031 C 3.818781 17.989969 3.959406 18.1345 4.04925 18.224344 C 4.139094 18.310281 4.279719 18.454813 4.369563 18.544656 C 4.459406 18.630594 4.600031 18.775125 4.689875 18.861063 C 4.775813 18.950906 4.920344 19.091531 5.010188 19.181375 C 5.096125 19.271219 5.240656 19.411844 5.326594 19.501688 C 5.416438 19.591531 5.560969 19.732156 5.646906 19.822 C 5.73675 19.911844 5.877375 20.052469 5.967219 20.142313 C 6.057063 20.22825 6.197688 20.372781 6.287531 20.462625 C 6.377375 20.548563 6.518 20.693094 6.607844 20.779031 C 6.693781 20.868875 6.838313 21.0095 6.928156 21.099344 C 7.014094 21.189188 7.158625 21.329813 7.248469 21.419656 C 7.334406 21.5095 7.478938 21.650125 7.564875 21.739969 C 7.654719 21.829813 7.79925 21.970438 7.885188 22.060281 C 7.975031 22.146219 8.115656 22.29075 8.2055 22.380594 C 8.295344 22.466531 8.435969 22.611063 8.525813 22.697 C 8.615656 22.786844 8.756281 22.931375 8.846125 23.017313 C 8.932063 23.107156 9.076594 23.247781 9.166438 23.337625 C 9.252375 23.427469 9.396906 23.568094 9.482844 23.657938 C 9.572688 23.747781 9.713313 23.888406 9.803156 23.97825 C 9.893 24.064188 10.033625 24.208719 10.123469 24.298563 C 10.213313 24.3845 10.353938 24.529031 10.443781 24.618875 C 10.533625 24.704813 10.67425 24.849344 10.764094 24.935281 C 10.850031 25.025125 10.994563 25.16575 11.084406 25.255594 C 11.170344 25.345438 11.314875 25.486063 11.404719 25.575906 C 11.490656 25.66575 11.635188 25.806375 11.721125 25.896219 C 11.810969 25.986063 11.951594 26.126688 12.041438 26.216531 C 12.131281 26.302469 12.271906 26.447 12.36175 26.536844 C 12.451594 26.622781 12.592219 26.767313 12.682063 26.85325 C 12.771906 26.943094 12.912531 27.087625 13.002375 27.173563 C 13.088313 27.263406 13.232844 27.404031 13.322688 27.493875 C 13.408625 27.583719 13.553156 27.724344 13.639094 27.814188 C 13.728938 27.904031 13.869563 28.044656 13.959406 28.1345 C 14.04925 28.220438 14.189875 28.364969 14.279719 28.454813 C 14.369563 28.54075 14.510188 28.685281 14.600031 28.775125 C 14.689875 28.861063 14.8305 29.005594 14.920344 29.091531 C 15.006281 29.181375 15.150813 29.322 15.240656 29.411844 C 15.326594 29.501688 15.471125 29.642313 15.557063 29.732156 C 15.646906 29.822 15.791438 29.962625 15.877375 30.052469 C 15.967219 30.142313 16.107844 30.282938 16.197688 30.372781 C 16.287531 30.458719 16.428156 30.60325 16.518 30.693094 C 16.607844 30.779031 16.748469 30.923563 16.838313 31.0095 C 16.92425 31.099344 17.068781 31.239969 17.158625 31.329813 C 17.244563 31.419656 17.389094 31.560281 17.478938 31.650125 C 17.564875 31.739969 17.709406 31.880594 17.795344 31.970438 C 17.885188 32.060281 18.025813 32.200906 18.115656 32.29075 C 18.2055 32.376688 18.346125 32.521219 18.435969 32.611063 C 18.525813 32.697 18.666438 32.841531 18.756281 32.927469 C 18.846125 33.017313 18.98675 33.161844 19.076594 33.247781 C 19.162531 33.337625 19.307063 33.47825 19.396906 33.568094 C 19.482844 33.657938 19.627375 33.798563 19.713313 33.888406 C 19.803156 33.97825 19.947688 34.118875 20.033625 34.208719 C 20.123469 34.298563 20.264094 34.439188 20.353938 34.529031 C 20.443781 34.614969 20.584406 34.7595 20.67425 34.849344 C 20.764094 34.935281 20.904719 35.079813 20.994563 35.16575 C 21.0805 35.255594 21.225031 35.396219 21.314875 35.486063 C 21.400813 35.575906 21.545344 35.716531 21.631281 35.806375 C 21.721125 35.896219 21.865656 36.036844 21.951594 36.126688 C 22.041438 36.216531 22.182063 36.357156 22.271906 36.447 C 22.36175 36.532938 22.502375 36.677469 22.592219 36.767313 C 22.682063 36.85325 22.822688 36.997781 22.912531 37.083719 C 23.002375 37.173563 23.143 37.318094 23.232844 37.404031 C 23.318781 37.493875 23.463313 37.6345 23.553156 37.724344 C 23.639094 37.814188 23.783625 37.954813 23.869563 38.044656 C 23.959406 38.1345 24.100031 38.275125 24.189875 38.364969 C 24.279719 38.450906 24.420344 38.595438 24.510188 38.685281 C 24.600031 38.771219 24.740656 38.91575 24.8305 39.005594 C 24.920344 39.091531 25.060969 39.236063 25.150813 39.322 C 25.23675 39.411844 25.381281 39.552469 25.471125 39.642313 C 25.557063 39.732156 25.701594 39.872781 25.787531 39.962625 C 25.877375 40.052469 26.021906 40.193094 26.107844 40.282938 C 26.197688 40.372781 26.338313 40.513406 26.428156 40.60325 C 26.518 40.689188 26.658625 40.833719 26.748469 40.919656 C 26.838313 41.0095 26.978938 41.154031 27.068781 41.239969 C 27.158625 41.329813 27.29925 41.474344 27.389094 41.560281 C 27.475031 41.650125 27.619563 41.79075 27.709406 41.880594 C 27.795344 41.970438 27.939875 42.111063 28.025813 42.200906 C 28.115656 42.29075 28.256281 42.431375 28.346125 42.521219 C 28.435969 42.607156 28.576594 42.751688 28.666438 42.841531 C 28.756281 42.927469 28.896906 43.072 28.98675 43.157938 C 29.076594 43.247781 29.217219 43.392313 29.307063 43.47825 C 29.393 43.568094 29.537531 43.708719 29.623469 43.798563 C 29.713313 43.888406 29.857844 44.029031 29.943781 44.118875 C 30.033625 44.208719 30.178156 44.349344 30.264094 44.439188 C 30.353938 44.529031 30.494563 44.669656 30.584406 44.7595 C 30.67425 44.845438 30.814875 44.989969 30.904719 45.075906 C 30.994563 45.16575 31.135188 45.310281 31.225031 45.396219 C 31.310969 45.486063 31.4555 45.626688 31.545344 45.716531 C 31.631281 45.806375 31.775813 45.947 31.86175 46.036844 C 31.951594 46.126688 32.096125 46.267313 32.182063 46.357156 C 32.271906 46.447 32.412531 46.587625 32.502375 46.677469 C 32.592219 46.763406 32.732844 46.907938 32.822688 46.993875 C 32.912531 47.083719 33.053156 47.22825 33.143 47.314188 C 33.232844 47.404031 33.373469 47.548563 33.463313 47.6345 C 33.54925 47.724344 33.693781 47.864969 33.779719 47.954813 C 33.869563 48.044656 34.014094 48.185281 34.100031 48.275125 C 34.189875 48.364969 34.334406 48.505594 34.420344 48.595438 C 34.510188 48.685281 34.650813 48.825906 34.740656 48.91575 C 34.8305 49.001688 34.971125 49.146219 35.060969 49.232156 C 35.150813 49.322 35.291438 49.466531 35.381281 49.552469 C 35.467219 49.642313 35.61175 49.782938 35.701594 49.872781 C 35.787531 49.962625 35.932063 50.10325 36.018 50.193094 C 36.107844 50.282938 36.252375 50.423563 36.338313 50.513406 C 36.428156 50.60325 36.568781 50.743875 36.658625 50.833719 C 36.748469 50.919656 36.889094 51.064188 36.978938 51.150125 C 37.068781 51.239969 37.209406 51.3845 37.29925 51.470438 C 37.389094 51.560281 37.529719 51.704813 37.619563 51.79075 C 37.7055 51.880594 37.850031 52.021219 37.935969 52.111063 C 38.025813 52.200906 38.170344 52.341531 38.256281 52.431375 C 38.346125 52.521219 38.48675 52.661844 38.576594 52.751688 C 38.666438 52.837625 38.807063 52.982156 38.896906 53.072 C 38.98675 53.157938 39.127375 53.302469 39.217219 53.388406 C 39.307063 53.47825 39.447688 53.622781 39.537531 53.708719 C 39.623469 53.798563 39.768 53.939188 39.857844 54.029031 C 39.943781 54.118875 40.088313 54.2595 40.17425 54.349344 C 40.264094 54.439188 40.408625 54.579813 40.494563 54.669656 C 40.584406 54.7595 40.725031 54.900125 40.814875 54.989969 C 40.904719 55.075906 41.045344 55.220438 41.135188 55.306375 C 41.225031 55.396219 41.365656 55.54075 41.4555 55.626688 C 41.545344 55.716531 41.685969 55.857156 41.775813 55.947 C 41.86175 56.036844 42.006281 56.177469 42.092219 56.267313 C 42.182063 56.357156 42.326594 56.497781 42.412531 56.587625 C 42.502375 56.677469 42.643 56.818094 42.732844 56.907938 C 42.822688 56.993875 42.963313 57.138406 43.053156 57.22825 C 43.143 57.314188 43.283625 57.458719 43.373469 57.544656 C 43.463313 57.6345 43.603938 57.779031 43.693781 57.864969 C 43.779719 57.954813 43.92425 58.095438 44.010188 58.185281 C 44.100031 58.275125 44.244563 58.41575 44.3305 58.505594 C 44.420344 58.595438 44.564875 58.736063 44.650813 58.825906 C 44.740656 58.91575 44.881281 59.056375 44.971125 59.146219 C 45.060969 59.232156 45.201594 59.376688 45.291438 59.462625 C 45.377375 59.552469 45.521906 59.697 45.61175 59.782938 C 45.697688 59.872781 45.842219 60.013406 45.932063 60.10325 C 46.018 60.193094 46.162531 60.333719 46.248469 60.423563 C 46.338313 60.513406 46.478938 60.654031 46.568781 60.743875 C 46.658625 60.833719 46.79925 60.974344 46.889094 61.064188 C 46.978938 61.150125 47.119563 61.294656 47.209406 61.380594 C 47.29925 61.470438 47.439875 61.614969 47.529719 61.700906 C 47.619563 61.79075 47.760188 61.935281 47.850031 62.021219 C 47.935969 62.111063 48.0805 62.251688 48.166438 62.341531 C 48.256281 62.431375 48.400813 62.572 48.48675 62.661844 C 48.576594 62.751688 48.717219 62.892313 48.807063 62.982156 C 48.896906 63.068094 49.037531 63.212625 49.127375 63.302469 C 49.217219 63.388406 49.357844 63.532938 49.447688 63.618875 C 49.537531 63.708719 49.678156 63.85325 49.768 63.939188 C 49.853938 64.029031 49.998469 64.169656 50.088313 64.2595 C 50.17425 64.349344 50.318781 64.489969 50.404719 64.579813 C 50.494563 64.669656 50.639094 64.810281 50.725031 64.900125 C 50.814875 64.986063 50.9555 65.130594 51.045344 65.220438 C 51.135188 65.306375 51.275813 65.450906 51.365656 65.536844 C 51.4555 65.626688 51.596125 65.771219 51.685969 65.857156 C 51.771906 65.947 51.916438 66.091531 52.006281 66.177469 C 52.092219 66.267313 52.23675 66.407938 52.322688 66.497781 C 52.412531 66.587625 52.557063 66.72825 52.643 66.818094 C 52.732844 66.907938 52.873469 67.048563 52.963313 67.138406 C 53.053156 67.224344 53.193781 67.368875 53.283625 67.458719 C 53.373469 67.544656 53.514094 67.689188 53.603938 67.775125 C 53.693781 67.864969 53.834406 68.0095 53.92425 68.095438 C 54.010188 68.185281 54.154719 68.325906 54.240656 68.41575 C 54.3305 68.505594 54.475031 68.646219 54.560969 68.736063 C 54.650813 68.825906 54.791438 68.966531 54.881281 69.056375 C 54.971125 69.146219 55.11175 69.286844 55.201594 69.376688 C 55.291438 69.462625 55.432063 69.607156 55.521906 69.693094 C 55.61175 69.782938 55.752375 69.927469 55.842219 70.013406 C 55.928156 70.10325 56.072688 70.243875 56.162531 70.333719 C 56.248469 70.423563 56.393 70.564188 56.478938 70.654031 C 56.568781 70.743875 56.709406 70.8845 56.79925 70.974344 C 56.889094 71.060281 57.029719 71.204813 57.119563 71.294656 C 57.209406 71.380594 57.350031 71.525125 57.439875 71.614969 C 57.529719 71.700906 57.670344 71.845438 57.760188 71.931375 C 57.846125 72.021219 57.990656 72.161844 58.0805 72.251688 C 58.166438 72.341531 58.310969 72.482156 58.396906 72.572 C 58.48675 72.661844 58.631281 72.802469 58.717219 72.892313 C 58.807063 72.982156 58.947688 73.122781 59.037531 73.212625 C 59.127375 73.298563 59.268 73.443094 59.357844 73.532938 C 59.447688 73.618875 59.588313 73.763406 59.678156 73.849344 C 59.764094 73.939188 59.908625 74.083719 59.998469 74.169656 C 60.084406 74.2595 60.228938 74.400125 60.318781 74.489969 C 60.404719 74.579813 60.54925 74.720438 60.635188 74.810281 C 60.725031 74.900125 60.865656 75.04075 60.9555 75.130594 C 61.045344 75.216531 61.185969 75.361063 61.275813 75.450906 C 61.365656 75.536844 61.506281 75.681375 61.596125 75.767313 C 61.685969 75.857156 61.826594 76.001688 61.916438 76.087625 C 62.002375 76.177469 62.146906 76.318094 62.23675 76.407938 C 62.322688 76.497781 62.467219 76.638406 62.553156 76.72825 C 62.643 76.818094 62.787531 76.958719 62.873469 77.048563 C 62.963313 77.138406 63.103938 77.279031 63.193781 77.368875 C 63.283625 77.454813 63.42425 77.599344 63.514094 77.689188 C 63.603938 77.775125 63.744563 77.919656 63.834406 78.005594 C 63.920344 78.095438 64.064875 78.236063 64.154719 78.325906 C 64.240656 78.41575 64.385188 78.556375 64.475031 78.646219 C 64.560969 78.736063 64.7055 78.876688 64.791438 78.966531 C 64.881281 79.056375 65.021906 79.197 65.11175 79.286844 C 65.201594 79.372781 65.342219 79.517313 65.432063 79.607156 C 65.521906 79.693094 65.662531 79.837625 65.752375 79.923563 C 65.842219 80.013406 65.982844 80.157938 66.072688 80.243875 C 66.158625 80.333719 66.303156 80.474344 66.393 80.564188 C 66.478938 80.654031 66.623469 80.794656 66.709406 80.8845 C 66.79925 80.974344 66.939875 81.114969 67.029719 81.204813 C 67.119563 81.29075 67.260188 81.435281 67.350031 81.525125 C 67.439875 81.611063 67.5805 81.755594 67.670344 81.845438 C 67.760188 81.931375 67.900813 82.075906 67.990656 82.161844 C 68.076594 82.251688 68.221125 82.392313 68.310969 82.482156 C 68.396906 82.572 68.541438 82.712625 68.627375 82.802469 C 68.717219 82.892313 68.86175 83.032938 68.947688 83.122781 C 69.037531 83.212625 69.178156 83.35325 69.268 83.443094 C 69.357844 83.529031 69.498469 83.673563 69.588313 83.763406 C 69.678156 83.849344 69.818781 83.993875 69.908625 84.079813 C 69.998469 84.169656 70.139094 84.314188 70.228938 84.400125 C 70.314875 84.489969 70.459406 84.630594 70.54925 84.720438 C 70.635188 84.810281 70.865656 85.04075 70.865656 85.04075 " transform="matrix(1,0,0,-1,76.232,98.322)"/>
<path style="fill-rule:nonzero;fill:rgb(100%,100%,100%);fill-opacity:1;stroke-width:0.3985;stroke-linecap:butt;stroke-linejoin:miter;stroke:rgb(0%,0%,0%);stroke-opacity:1;stroke-miterlimit:10;" d="M 2.834406 0.0016875 C 2.834406 1.564188 1.564875 2.833719 -0.00153125 2.833719 C -1.564031 2.833719 -2.833562 1.564188 -2.833562 0.0016875 C -2.833562 -1.564719 -1.564031 -2.83425 -0.00153125 -2.83425 C 1.564875 -2.83425 2.834406 -1.564719 2.834406 0.0016875 Z M 2.834406 0.0016875 " transform="matrix(1,0,0,-1,76.232,98.322)"/>
<path style="fill-rule:nonzero;fill:rgb(100%,100%,100%);fill-opacity:1;stroke-width:0.3985;stroke-linecap:butt;stroke-linejoin:miter;stroke:rgb(0%,0%,0%);stroke-opacity:1;stroke-miterlimit:10;" d="M 31.182063 28.345438 C 31.182063 29.911844 29.912531 31.181375 28.346125 31.181375 C 26.779719 31.181375 25.510188 29.911844 25.510188 28.345438 C 25.510188 26.782938 26.779719 25.513406 28.346125 25.513406 C 29.912531 25.513406 31.182063 26.782938 31.182063 28.345438 Z M 31.182063 28.345438 " transform="matrix(1,0,0,-1,76.232,98.322)"/>
<path style=" stroke:none;fill-rule:nonzero;fill:rgb(0%,0%,0%);fill-opacity:1;" d="M 79.066406 69.976562 C 79.066406 68.410156 77.796875 67.140625 76.230469 67.140625 C 74.667969 67.140625 73.398438 68.410156 73.398438 69.976562 C 73.398438 71.539062 74.667969 72.808594 76.230469 72.808594 C 77.796875 72.808594 79.066406 71.539062 79.066406 69.976562 Z M 79.066406 69.976562 "/>
<path style=" stroke:none;fill-rule:nonzero;fill:rgb(0%,0%,0%);fill-opacity:1;" d="M 107.414062 98.320312 C 107.414062 96.757812 106.144531 95.488281 104.578125 95.488281 C 103.011719 95.488281 101.742188 96.757812 101.742188 98.320312 C 101.742188 99.886719 103.011719 101.15625 104.578125 101.15625 C 106.144531 101.15625 107.414062 99.886719 107.414062 98.320312 Z M 107.414062 98.320312 "/>
</g>
</svg>
