<?xml version="1.0" encoding="UTF-8"?>
<svg xmlns="http://www.w3.org/2000/svg" xmlns:xlink="http://www.w3.org/1999/xlink" width="178.074pt" height="169.902pt" viewBox="0 0 178.074 169.902" version="1.1">
<g id="surface1">
<path style="fill:none;stroke-width:0.19925;stroke-linecap:butt;stroke-linejoin:miter;stroke:rgb(50%,50%,50%);stroke-opacity:1;stroke-miterlimit:10;" d="M -59.528875 -56.69425 L 87.873469 -56.69425 M -59.528875 -28.346594 L 87.873469 -28.346594 M -59.528875 0.0010625 L 87.873469 0.0010625 M -59.528875 28.348719 L 87.873469 28.348719 M -59.528875 56.692469 L 87.873469 56.692469 M -59.528875 85.040125 L 87.873469 85.040125 M -56.692937 -59.530187 L -56.692937 87.876063 M -28.345281 -59.530187 L -28.345281 87.876063 M -0.00153125 -59.530187 L -0.00153125 87.876063 M 28.346125 -59.530187 L 28.346125 87.876063 M 56.693781 -59.530187 L 56.693781 87.876063 M 85.041438 -59.530187 L 85.041438 87.876063 " transform="matrix(1,0,0,-1,76.232,100.212)"/>
<path style="fill:none;stroke-width:0.3985;stroke-linecap:butt;stroke-linejoin:miter;stroke:rgb(0%,0%,100%);stroke-opacity:1;stroke-miterlimit:10;" d="M -56.692937 11.809656 C -56.692937 11.809656 -56.571844 11.813563 -56.524969 11.813563 C -56.478094 11.813563 -56.399969 11.813563 -56.353094 11.813563 C -56.306219 11.813563 -56.232 11.813563 -56.185125 11.813563 C -56.13825 11.813563 -56.064031 11.813563 -56.017156 11.817469 C -55.970281 11.817469 -55.892156 11.817469 -55.845281 11.817469 C -55.798406 11.817469 -55.724187 11.817469 -55.677312 11.817469 C -55.630437 11.817469 -55.556219 11.817469 -55.509344 11.821375 C -55.462469 11.821375 -55.384344 11.821375 -55.337469 11.821375 C -55.290594 11.821375 -55.216375 11.821375 -55.1695 11.821375 C -55.122625 11.821375 -55.0445 11.821375 -54.997625 11.821375 C -54.95075 11.825281 -54.876531 11.825281 -54.829656 11.825281 C -54.782781 11.825281 -54.708562 11.825281 -54.661687 11.825281 C -54.614812 11.825281 -54.536687 11.825281 -54.489812 11.825281 C -54.442937 11.825281 -54.368719 11.829188 -54.321844 11.829188 C -54.274969 11.829188 -54.20075 11.829188 -54.153875 11.829188 C -54.103094 11.829188 -54.028875 11.829188 -53.982 11.829188 C -53.935125 11.829188 -53.860906 11.833094 -53.814031 11.833094 C -53.767156 11.833094 -53.689031 11.833094 -53.642156 11.833094 C -53.595281 11.833094 -53.521062 11.833094 -53.474187 11.833094 C -53.427312 11.833094 -53.353094 11.837 -53.306219 11.837 C -53.259344 11.837 -53.181219 11.837 -53.134344 11.837 C -53.087469 11.837 -53.01325 11.837 -52.966375 11.837 C -52.9195 11.837 -52.845281 11.840906 -52.7945 11.840906 C -52.747625 11.840906 -52.673406 11.840906 -52.626531 11.840906 C -52.579656 11.840906 -52.505437 11.840906 -52.458562 11.840906 C -52.411687 11.840906 -52.333562 11.844813 -52.286687 11.844813 C -52.239812 11.844813 -52.165594 11.844813 -52.118719 11.844813 C -52.071844 11.844813 -51.997625 11.844813 -51.95075 11.848719 C -51.903875 11.848719 -51.82575 11.848719 -51.778875 11.848719 C -51.732 11.848719 -51.657781 11.848719 -51.610906 11.848719 C -51.564031 11.848719 -51.489812 11.848719 -51.439031 11.848719 C -51.392156 11.852625 -51.317937 11.852625 -51.271062 11.852625 C -51.224187 11.852625 -51.149969 11.852625 -51.103094 11.852625 C -51.056219 11.852625 -50.978094 11.856531 -50.931219 11.856531 C -50.884344 11.856531 -50.810125 11.856531 -50.76325 11.856531 C -50.716375 11.856531 -50.642156 11.856531 -50.595281 11.856531 C -50.548406 11.856531 -50.470281 11.860438 -50.423406 11.860438 C -50.376531 11.860438 -50.302312 11.860438 -50.255437 11.860438 C -50.208562 11.860438 -50.130437 11.860438 -50.083562 11.860438 C -50.036687 11.860438 -49.962469 11.864344 -49.915594 11.864344 C -49.868719 11.864344 -49.7945 11.864344 -49.747625 11.864344 C -49.70075 11.864344 -49.622625 11.864344 -49.57575 11.864344 C -49.528875 11.86825 -49.454656 11.86825 -49.407781 11.86825 C -49.360906 11.86825 -49.286687 11.86825 -49.239812 11.86825 C -49.189031 11.86825 -49.114812 11.872156 -49.067937 11.872156 C -49.021062 11.872156 -48.946844 11.872156 -48.899969 11.872156 C -48.853094 11.872156 -48.774969 11.872156 -48.728094 11.872156 C -48.681219 11.876063 -48.607 11.876063 -48.560125 11.876063 C -48.51325 11.876063 -48.439031 11.876063 -48.392156 11.876063 C -48.345281 11.876063 -48.267156 11.876063 -48.220281 11.879969 C -48.173406 11.879969 -48.099187 11.879969 -48.052312 11.879969 C -48.005437 11.879969 -47.931219 11.879969 -47.880437 11.879969 C -47.833562 11.879969 -47.759344 11.883875 -47.712469 11.883875 C -47.665594 11.883875 -47.591375 11.883875 -47.5445 11.883875 C -47.497625 11.883875 -47.4195 11.883875 -47.372625 11.887781 C -47.32575 11.887781 -47.251531 11.887781 -47.204656 11.887781 C -47.157781 11.887781 -47.083562 11.887781 -47.036687 11.887781 C -46.989812 11.887781 -46.911687 11.891688 -46.864812 11.891688 C -46.817937 11.891688 -46.743719 11.891688 -46.696844 11.891688 C -46.649969 11.891688 -46.57575 11.891688 -46.528875 11.895594 C -46.482 11.895594 -46.403875 11.895594 -46.357 11.895594 C -46.310125 11.895594 -46.235906 11.895594 -46.189031 11.895594 C -46.142156 11.8995 -46.064031 11.8995 -46.017156 11.8995 C -45.970281 11.8995 -45.896062 11.8995 -45.849187 11.8995 C -45.802312 11.8995 -45.728094 11.903406 -45.681219 11.903406 C -45.634344 11.903406 -45.556219 11.903406 -45.509344 11.903406 C -45.462469 11.903406 -45.38825 11.903406 -45.341375 11.907313 C -45.2945 11.907313 -45.220281 11.907313 -45.173406 11.907313 C -45.126531 11.907313 -45.048406 11.907313 -45.001531 11.911219 C -44.954656 11.911219 -44.880437 11.911219 -44.833562 11.911219 C -44.786687 11.911219 -44.708562 11.911219 -44.661687 11.911219 C -44.614812 11.915125 -44.540594 11.915125 -44.493719 11.915125 C -44.446844 11.915125 -44.372625 11.915125 -44.32575 11.915125 C -44.278875 11.915125 -44.20075 11.919031 -44.153875 11.919031 C -44.107 11.919031 -44.032781 11.919031 -43.985906 11.919031 C -43.939031 11.919031 -43.864812 11.922938 -43.817937 11.922938 C -43.767156 11.922938 -43.692937 11.922938 -43.646062 11.922938 C -43.599187 11.922938 -43.524969 11.922938 -43.478094 11.926844 C -43.431219 11.926844 -43.353094 11.926844 -43.306219 11.926844 C -43.259344 11.926844 -43.185125 11.926844 -43.13825 11.926844 C -43.091375 11.93075 -43.017156 11.93075 -42.970281 11.93075 C -42.923406 11.93075 -42.845281 11.93075 -42.798406 11.93075 C -42.751531 11.934656 -42.677312 11.934656 -42.630437 11.934656 C -42.583562 11.934656 -42.509344 11.934656 -42.458562 11.934656 C -42.411687 11.938563 -42.337469 11.938563 -42.290594 11.938563 C -42.243719 11.938563 -42.1695 11.938563 -42.122625 11.938563 C -42.07575 11.938563 -41.997625 11.942469 -41.95075 11.942469 C -41.903875 11.942469 -41.829656 11.942469 -41.782781 11.942469 C -41.735906 11.942469 -41.661687 11.946375 -41.614812 11.946375 C -41.567937 11.946375 -41.489812 11.946375 -41.442937 11.946375 C -41.396062 11.946375 -41.321844 11.950281 -41.274969 11.950281 C -41.228094 11.950281 -41.153875 11.950281 -41.103094 11.950281 C -41.056219 11.950281 -40.982 11.954188 -40.935125 11.954188 C -40.88825 11.954188 -40.814031 11.954188 -40.767156 11.954188 C -40.720281 11.954188 -40.642156 11.958094 -40.595281 11.958094 C -40.548406 11.958094 -40.474187 11.958094 -40.427312 11.958094 C -40.380437 11.962 -40.306219 11.962 -40.259344 11.962 C -40.212469 11.962 -40.134344 11.962 -40.087469 11.962 C -40.040594 11.965906 -39.966375 11.965906 -39.9195 11.965906 C -39.872625 11.965906 -39.798406 11.965906 -39.751531 11.969813 C -39.704656 11.969813 -39.626531 11.969813 -39.579656 11.969813 C -39.532781 11.969813 -39.458562 11.969813 -39.411687 11.973719 C -39.364812 11.973719 -39.286687 11.973719 -39.239812 11.973719 C -39.192937 11.973719 -39.118719 11.973719 -39.071844 11.977625 C -39.024969 11.977625 -38.95075 11.977625 -38.903875 11.977625 C -38.857 11.977625 -38.778875 11.981531 -38.732 11.981531 C -38.685125 11.981531 -38.610906 11.981531 -38.564031 11.981531 C -38.517156 11.981531 -38.442937 11.985438 -38.396062 11.985438 C -38.345281 11.985438 -38.271062 11.985438 -38.224187 11.985438 C -38.177312 11.989344 -38.103094 11.989344 -38.056219 11.989344 C -38.009344 11.989344 -37.931219 11.989344 -37.884344 11.99325 C -37.837469 11.99325 -37.76325 11.99325 -37.716375 11.99325 C -37.6695 11.99325 -37.595281 11.997156 -37.548406 11.997156 C -37.501531 11.997156 -37.423406 11.997156 -37.376531 11.997156 C -37.329656 12.001063 -37.255437 12.001063 -37.208562 12.001063 C -37.161687 12.001063 -37.087469 12.001063 -37.036687 12.004969 C -36.989812 12.004969 -36.915594 12.004969 -36.868719 12.004969 C -36.821844 12.004969 -36.747625 12.008875 -36.70075 12.008875 C -36.653875 12.008875 -36.57575 12.008875 -36.528875 12.008875 C -36.482 12.012781 -36.407781 12.012781 -36.360906 12.012781 C -36.314031 12.012781 -36.239812 12.012781 -36.192937 12.016688 C -36.146062 12.016688 -36.067937 12.016688 -36.021062 12.016688 C -35.974187 12.016688 -35.899969 12.020594 -35.853094 12.020594 C -35.806219 12.020594 -35.732 12.020594 -35.681219 12.020594 C -35.634344 12.0245 -35.560125 12.0245 -35.51325 12.0245 C -35.466375 12.0245 -35.392156 12.0245 -35.345281 12.028406 C -35.298406 12.028406 -35.220281 12.028406 -35.173406 12.028406 C -35.126531 12.032313 -35.052312 12.032313 -35.005437 12.032313 C -34.958562 12.032313 -34.884344 12.032313 -34.837469 12.036219 C -34.790594 12.036219 -34.712469 12.036219 -34.665594 12.036219 C -34.618719 12.040125 -34.5445 12.040125 -34.497625 12.040125 C -34.45075 12.040125 -34.372625 12.040125 -34.32575 12.044031 C -34.278875 12.044031 -34.204656 12.044031 -34.157781 12.044031 C -34.110906 12.047938 -34.036687 12.047938 -33.989812 12.047938 C -33.942937 12.047938 -33.864812 12.047938 -33.817937 12.051844 C -33.771062 12.051844 -33.696844 12.051844 -33.649969 12.051844 C -33.603094 12.05575 -33.528875 12.05575 -33.482 12.05575 C -33.431219 12.05575 -33.357 12.059656 -33.310125 12.059656 C -33.26325 12.059656 -33.189031 12.059656 -33.142156 12.059656 C -33.095281 12.063563 -33.017156 12.063563 -32.970281 12.063563 C -32.923406 12.063563 -32.849187 12.067469 -32.802312 12.067469 C -32.755437 12.067469 -32.681219 12.067469 -32.634344 12.071375 C -32.587469 12.071375 -32.509344 12.071375 -32.462469 12.071375 C -32.415594 12.075281 -32.341375 12.075281 -32.2945 12.075281 C -32.247625 12.075281 -32.173406 12.079188 -32.126531 12.079188 C -32.07575 12.079188 -32.001531 12.079188 -31.954656 12.083094 C -31.907781 12.083094 -31.833562 12.083094 -31.786687 12.083094 C -31.739812 12.083094 -31.661687 12.087 -31.614812 12.087 C -31.567937 12.087 -31.493719 12.090906 -31.446844 12.090906 C -31.399969 12.090906 -31.32575 12.090906 -31.278875 12.094813 C -31.232 12.094813 -31.153875 12.094813 -31.107 12.094813 C -31.060125 12.094813 -30.985906 12.098719 -30.939031 12.098719 C -30.892156 12.098719 -30.817937 12.102625 -30.767156 12.102625 C -30.720281 12.102625 -30.646062 12.102625 -30.599187 12.106531 C -30.552312 12.106531 -30.478094 12.106531 -30.431219 12.106531 C -30.384344 12.110438 -30.306219 12.110438 -30.259344 12.110438 C -30.212469 12.110438 -30.13825 12.114344 -30.091375 12.114344 C -30.0445 12.114344 -29.970281 12.11825 -29.923406 12.11825 C -29.876531 12.11825 -29.798406 12.11825 -29.751531 12.122156 C -29.704656 12.122156 -29.630437 12.122156 -29.583562 12.122156 C -29.536687 12.126063 -29.458562 12.126063 -29.411687 12.126063 C -29.364812 12.129969 -29.290594 12.129969 -29.243719 12.129969 C -29.196844 12.129969 -29.122625 12.133875 -29.07575 12.133875 C -29.028875 12.133875 -28.95075 12.137781 -28.903875 12.137781 C -28.857 12.137781 -28.782781 12.137781 -28.735906 12.141688 C -28.689031 12.141688 -28.614812 12.141688 -28.567937 12.145594 C -28.517156 12.145594 -28.442937 12.145594 -28.396062 12.1495 C -28.349187 12.1495 -28.274969 12.1495 -28.228094 12.1495 C -28.181219 12.153406 -28.103094 12.153406 -28.056219 12.153406 C -28.009344 12.157313 -27.935125 12.157313 -27.88825 12.157313 C -27.841375 12.157313 -27.767156 12.161219 -27.720281 12.161219 C -27.673406 12.161219 -27.595281 12.165125 -27.548406 12.165125 C -27.501531 12.165125 -27.427312 12.169031 -27.380437 12.169031 C -27.333562 12.169031 -27.259344 12.172938 -27.208562 12.172938 C -27.161687 12.172938 -27.087469 12.176844 -27.040594 12.176844 C -26.993719 12.176844 -26.9195 12.176844 -26.872625 12.18075 C -26.82575 12.18075 -26.747625 12.18075 -26.70075 12.184656 C -26.653875 12.184656 -26.579656 12.184656 -26.532781 12.188563 C -26.485906 12.188563 -26.411687 12.188563 -26.364812 12.192469 C -26.317937 12.192469 -26.239812 12.192469 -26.192937 12.196375 C -26.146062 12.196375 -26.071844 12.196375 -26.024969 12.200281 C -25.978094 12.200281 -25.903875 12.200281 -25.857 12.204188 C -25.810125 12.204188 -25.732 12.204188 -25.685125 12.208094 C -25.63825 12.208094 -25.564031 12.208094 -25.517156 12.212 C -25.470281 12.212 -25.392156 12.212 -25.345281 12.215906 C -25.298406 12.215906 -25.224187 12.215906 -25.177312 12.219813 C -25.130437 12.219813 -25.056219 12.223719 -25.009344 12.223719 C -24.962469 12.223719 -24.884344 12.227625 -24.837469 12.227625 C -24.790594 12.227625 -24.716375 12.231531 -24.6695 12.231531 C -24.622625 12.231531 -24.548406 12.235438 -24.501531 12.235438 C -24.454656 12.235438 -24.376531 12.239344 -24.329656 12.239344 C -24.282781 12.239344 -24.208562 12.24325 -24.161687 12.24325 C -24.114812 12.247156 -24.036687 12.247156 -23.989812 12.247156 C -23.942937 12.251063 -23.868719 12.251063 -23.821844 12.251063 C -23.774969 12.254969 -23.70075 12.254969 -23.653875 12.258875 C -23.607 12.258875 -23.528875 12.258875 -23.482 12.262781 C -23.435125 12.262781 -23.360906 12.266688 -23.314031 12.266688 C -23.267156 12.266688 -23.192937 12.270594 -23.146062 12.270594 C -23.099187 12.270594 -23.021062 12.2745 -22.974187 12.2745 C -22.927312 12.278406 -22.853094 12.278406 -22.806219 12.278406 C -22.759344 12.282313 -22.681219 12.282313 -22.634344 12.286219 C -22.587469 12.286219 -22.51325 12.286219 -22.466375 12.290125 C -22.4195 12.290125 -22.345281 12.294031 -22.298406 12.294031 C -22.251531 12.294031 -22.173406 12.297938 -22.126531 12.297938 C -22.079656 12.301844 -22.005437 12.301844 -21.958562 12.30575 C -21.911687 12.30575 -21.837469 12.309656 -21.790594 12.309656 C -21.739812 12.309656 -21.665594 12.313563 -21.618719 12.313563 C -21.571844 12.313563 -21.497625 12.317469 -21.45075 12.317469 C -21.403875 12.321375 -21.32575 12.321375 -21.278875 12.325281 C -21.232 12.325281 -21.157781 12.329188 -21.110906 12.329188 C -21.064031 12.329188 -20.989812 12.333094 -20.942937 12.333094 C -20.896062 12.337 -20.817937 12.337 -20.771062 12.340906 C -20.724187 12.340906 -20.649969 12.344813 -20.603094 12.344813 C -20.556219 12.344813 -20.482 12.348719 -20.431219 12.348719 C -20.384344 12.352625 -20.310125 12.352625 -20.26325 12.356531 C -20.216375 12.356531 -20.142156 12.360438 -20.095281 12.360438 C -20.048406 12.364344 -19.970281 12.364344 -19.923406 12.36825 C -19.876531 12.36825 -19.802312 12.372156 -19.755437 12.372156 C -19.708562 12.372156 -19.634344 12.376063 -19.587469 12.379969 C -19.540594 12.379969 -19.462469 12.383875 -19.415594 12.383875 C -19.368719 12.383875 -19.2945 12.387781 -19.247625 12.387781 C -19.20075 12.391688 -19.122625 12.395594 -19.07575 12.395594 C -19.028875 12.395594 -18.954656 12.3995 -18.907781 12.3995 C -18.860906 12.403406 -18.786687 12.407313 -18.739812 12.407313 C -18.692937 12.407313 -18.614812 12.411219 -18.567937 12.415125 C -18.521062 12.415125 -18.446844 12.419031 -18.399969 12.419031 C -18.353094 12.422938 -18.278875 12.422938 -18.232 12.426844 C -18.185125 12.426844 -18.107 12.43075 -18.060125 12.43075 C -18.01325 12.434656 -17.939031 12.438563 -17.892156 12.438563 C -17.845281 12.438563 -17.767156 12.442469 -17.720281 12.446375 C -17.673406 12.446375 -17.599187 12.450281 -17.552312 12.450281 C -17.505437 12.454188 -17.431219 12.458094 -17.384344 12.458094 C -17.337469 12.458094 -17.259344 12.462 -17.212469 12.465906 C -17.165594 12.465906 -17.091375 12.469813 -17.0445 12.469813 C -16.997625 12.473719 -16.923406 12.477625 -16.876531 12.477625 C -16.829656 12.481531 -16.751531 12.481531 -16.704656 12.485438 C -16.657781 12.485438 -16.583562 12.489344 -16.536687 12.49325 C -16.489812 12.49325 -16.415594 12.497156 -16.368719 12.497156 C -16.317937 12.501063 -16.243719 12.504969 -16.196844 12.504969 C -16.149969 12.508875 -16.07575 12.512781 -16.028875 12.512781 C -15.982 12.516688 -15.903875 12.516688 -15.857 12.520594 C -15.810125 12.5245 -15.735906 12.5245 -15.689031 12.528406 C -15.642156 12.528406 -15.567937 12.532313 -15.521062 12.536219 C -15.474187 12.536219 -15.396062 12.540125 -15.349187 12.544031 C -15.302312 12.544031 -15.228094 12.547938 -15.181219 12.551844 C -15.134344 12.551844 -15.060125 12.55575 -15.009344 12.559656 C -14.962469 12.559656 -14.88825 12.563563 -14.841375 12.567469 C -14.7945 12.567469 -14.720281 12.571375 -14.673406 12.575281 C -14.626531 12.575281 -14.548406 12.579188 -14.501531 12.583094 C -14.454656 12.583094 -14.380437 12.587 -14.333562 12.590906 C -14.286687 12.594813 -14.212469 12.594813 -14.165594 12.598719 C -14.118719 12.602625 -14.040594 12.606531 -13.993719 12.606531 C -13.946844 12.610438 -13.872625 12.614344 -13.82575 12.614344 C -13.778875 12.61825 -13.70075 12.622156 -13.653875 12.626063 C -13.607 12.626063 -13.532781 12.629969 -13.485906 12.633875 C -13.439031 12.637781 -13.364812 12.641688 -13.317937 12.641688 C -13.271062 12.645594 -13.192937 12.6495 -13.146062 12.6495 C -13.099187 12.653406 -13.024969 12.657313 -12.978094 12.661219 C -12.931219 12.661219 -12.857 12.669031 -12.810125 12.669031 C -12.759344 12.672938 -12.685125 12.676844 -12.63825 12.68075 C -12.591375 12.68075 -12.517156 12.684656 -12.470281 12.688563 C -12.423406 12.692469 -12.345281 12.696375 -12.298406 12.700281 C -12.251531 12.700281 -12.177312 12.704188 -12.130437 12.708094 C -12.083562 12.712 -12.009344 12.715906 -11.962469 12.719813 C -11.915594 12.719813 -11.837469 12.723719 -11.790594 12.727625 C -11.743719 12.731531 -11.6695 12.735438 -11.622625 12.739344 C -11.57575 12.74325 -11.501531 12.747156 -11.454656 12.747156 C -11.403875 12.751063 -11.329656 12.754969 -11.282781 12.758875 C -11.235906 12.762781 -11.161687 12.766688 -11.114812 12.770594 C -11.067937 12.7745 -10.989812 12.778406 -10.942937 12.782313 C -10.896062 12.782313 -10.821844 12.790125 -10.774969 12.790125 C -10.728094 12.794031 -10.653875 12.801844 -10.607 12.801844 C -10.560125 12.80575 -10.482 12.813563 -10.435125 12.813563 C -10.38825 12.817469 -10.314031 12.821375 -10.267156 12.825281 C -10.220281 12.829188 -10.146062 12.833094 -10.095281 12.837 C -10.048406 12.840906 -9.974187 12.848719 -9.927312 12.848719 C -9.880437 12.852625 -9.806219 12.860438 -9.759344 12.860438 C -9.712469 12.864344 -9.634344 12.872156 -9.587469 12.876063 C -9.540594 12.876063 -9.466375 12.883875 -9.4195 12.887781 C -9.372625 12.891688 -9.298406 12.895594 -9.251531 12.8995 C -9.204656 12.903406 -9.126531 12.911219 -9.079656 12.911219 C -9.032781 12.915125 -8.958562 12.922938 -8.911687 12.926844 C -8.864812 12.93075 -8.786687 12.934656 -8.739812 12.938563 C -8.692937 12.942469 -8.618719 12.950281 -8.571844 12.954188 C -8.524969 12.958094 -8.45075 12.962 -8.403875 12.965906 C -8.357 12.969813 -8.278875 12.977625 -8.232 12.981531 C -8.185125 12.985438 -8.110906 12.989344 -8.064031 12.99325 C -8.017156 13.001063 -7.942937 13.004969 -7.896062 13.008875 C -7.849187 13.012781 -7.771062 13.020594 -7.724187 13.0245 C -7.677312 13.028406 -7.603094 13.036219 -7.556219 13.040125 C -7.509344 13.044031 -7.431219 13.051844 -7.384344 13.05575 C -7.337469 13.059656 -7.26325 13.067469 -7.216375 13.071375 C -7.1695 13.075281 -7.095281 13.083094 -7.048406 13.087 C -7.001531 13.090906 -6.923406 13.098719 -6.876531 13.102625 C -6.829656 13.106531 -6.755437 13.114344 -6.708562 13.11825 C -6.661687 13.126063 -6.587469 13.129969 -6.540594 13.137781 C -6.493719 13.141688 -6.415594 13.1495 -6.368719 13.153406 C -6.321844 13.157313 -6.247625 13.165125 -6.20075 13.172938 C -6.153875 13.176844 -6.07575 13.184656 -6.028875 13.188563 C -5.982 13.192469 -5.907781 13.204188 -5.860906 13.208094 C -5.814031 13.212 -5.739812 13.219813 -5.692937 13.227625 C -5.646062 13.231531 -5.567937 13.239344 -5.521062 13.24325 C -5.474187 13.251063 -5.399969 13.258875 -5.353094 13.262781 C -5.306219 13.270594 -5.232 13.278406 -5.185125 13.282313 C -5.13825 13.290125 -5.060125 13.297938 -5.01325 13.30575 C -4.966375 13.309656 -4.892156 13.317469 -4.845281 13.325281 C -4.798406 13.329188 -4.720281 13.340906 -4.673406 13.344813 C -4.626531 13.352625 -4.552312 13.360438 -4.505437 13.36825 C -4.458562 13.372156 -4.384344 13.383875 -4.337469 13.387781 C -4.290594 13.395594 -4.212469 13.407313 -4.165594 13.411219 C -4.118719 13.419031 -4.0445 13.426844 -3.997625 13.434656 C -3.95075 13.442469 -3.876531 13.450281 -3.829656 13.458094 C -3.782781 13.465906 -3.704656 13.473719 -3.657781 13.481531 C -3.610906 13.489344 -3.536687 13.501063 -3.489812 13.504969 C -3.442937 13.512781 -3.364812 13.5245 -3.317937 13.532313 C -3.271062 13.540125 -3.196844 13.547938 -3.149969 13.55575 C -3.103094 13.563563 -3.028875 13.575281 -2.982 13.583094 C -2.935125 13.590906 -2.857 13.602625 -2.810125 13.610438 C -2.76325 13.61825 -2.689031 13.629969 -2.642156 13.637781 C -2.595281 13.645594 -2.521062 13.657313 -2.474187 13.665125 C -2.423406 13.672938 -2.349187 13.688563 -2.302312 13.696375 C -2.255437 13.704188 -2.181219 13.715906 -2.134344 13.723719 C -2.087469 13.731531 -2.009344 13.747156 -1.962469 13.754969 C -1.915594 13.762781 -1.841375 13.778406 -1.7945 13.786219 C -1.747625 13.794031 -1.673406 13.809656 -1.626531 13.817469 C -1.579656 13.825281 -1.501531 13.840906 -1.454656 13.852625 C -1.407781 13.860438 -1.333562 13.876063 -1.286687 13.883875 C -1.239812 13.895594 -1.165594 13.911219 -1.118719 13.919031 C -1.067937 13.93075 -0.993719 13.946375 -0.946844 13.954188 C -0.899969 13.965906 -0.82575 13.981531 -0.778875 13.989344 C -0.732 14.001063 -0.653875 14.016688 -0.607 14.028406 C -0.560125 14.040125 -0.485906 14.05575 -0.439031 14.067469 C -0.392156 14.079188 -0.317937 14.094813 -0.271062 14.106531 C -0.224187 14.11825 -0.146062 14.137781 -0.0991875 14.1495 C -0.0523125 14.161219 0.0219063 14.176844 0.0687813 14.192469 C 0.115656 14.204188 0.189875 14.223719 0.240656 14.235438 C 0.287531 14.247156 0.36175 14.266688 0.408625 14.278406 C 0.4555 14.290125 0.529719 14.313563 0.576594 14.325281 C 0.623469 14.337 0.701594 14.360438 0.748469 14.372156 C 0.795344 14.387781 0.869563 14.407313 0.916438 14.422938 C 0.963313 14.434656 1.037531 14.458094 1.084406 14.473719 C 1.131281 14.489344 1.209406 14.512781 1.256281 14.5245 C 1.303156 14.540125 1.377375 14.563563 1.42425 14.579188 C 1.471125 14.594813 1.545344 14.622156 1.596125 14.637781 C 1.643 14.653406 1.717219 14.68075 1.764094 14.696375 C 1.810969 14.712 1.885188 14.739344 1.932063 14.754969 C 1.978938 14.7745 2.057063 14.801844 2.103938 14.817469 C 2.150813 14.837 2.225031 14.864344 2.271906 14.883875 C 2.318781 14.903406 2.393 14.93075 2.439875 14.950281 C 2.490656 14.969813 2.564875 15.001063 2.61175 15.020594 C 2.658625 15.040125 2.732844 15.075281 2.779719 15.094813 C 2.826594 15.114344 2.904719 15.1495 2.951594 15.169031 C 2.998469 15.192469 3.072688 15.227625 3.119563 15.251063 C 3.166438 15.270594 3.240656 15.309656 3.287531 15.333094 C 3.334406 15.356531 3.412531 15.391688 3.459406 15.419031 C 3.506281 15.442469 3.5805 15.481531 3.627375 15.504969 C 3.67425 15.532313 3.748469 15.575281 3.795344 15.602625 C 3.846125 15.626063 3.920344 15.669031 3.967219 15.700281 C 4.014094 15.727625 4.088313 15.770594 4.135188 15.801844 C 4.182063 15.829188 4.260188 15.876063 4.307063 15.907313 C 4.353938 15.938563 4.428156 15.989344 4.475031 16.020594 C 4.521906 16.051844 4.596125 16.106531 4.643 16.137781 C 4.689875 16.172938 4.768 16.227625 4.814875 16.262781 C 4.86175 16.301844 4.935969 16.356531 4.982844 16.395594 C 5.029719 16.434656 5.103938 16.49325 5.150813 16.532313 C 5.197688 16.575281 5.275813 16.637781 5.322688 16.68075 C 5.369563 16.723719 5.443781 16.790125 5.490656 16.837 C 5.537531 16.879969 5.615656 16.954188 5.662531 17.001063 C 5.709406 17.047938 5.783625 17.122156 5.8305 17.172938 C 5.877375 17.223719 5.951594 17.30575 5.998469 17.360438 C 6.045344 17.411219 6.123469 17.501063 6.170344 17.55575 C 6.217219 17.614344 6.291438 17.708094 6.338313 17.766688 C 6.385188 17.829188 6.459406 17.926844 6.506281 17.99325 C 6.553156 18.05575 6.631281 18.165125 6.678156 18.235438 C 6.725031 18.30575 6.79925 18.419031 6.846125 18.49325 C 6.893 18.567469 6.971125 18.692469 7.018 18.7745 C 7.064875 18.856531 7.139094 18.989344 7.185969 19.079188 C 7.232844 19.165125 7.307063 19.313563 7.353938 19.407313 C 7.400813 19.501063 7.478938 19.661219 7.525813 19.766688 C 7.572688 19.86825 7.646906 20.044031 7.693781 20.157313 C 7.740656 20.270594 7.814875 20.462 7.86175 20.587 C 7.908625 20.712 7.98675 20.922938 8.033625 21.059656 C 8.0805 21.200281 8.154719 21.434656 8.201594 21.587 C 8.248469 21.739344 8.326594 22.001063 8.373469 22.172938 C 8.420344 22.344813 8.494563 22.633875 8.541438 22.829188 C 8.588313 23.020594 8.662531 23.348719 8.709406 23.567469 C 8.756281 23.790125 8.834406 24.161219 8.881281 24.411219 C 8.928156 24.665125 9.002375 25.090906 9.04925 25.379969 C 9.096125 25.669031 9.170344 26.165125 9.217219 26.501063 C 9.268 26.840906 9.342219 27.419031 9.389094 27.821375 C 9.435969 28.219813 9.510188 28.907313 9.557063 29.387781 C 9.603938 29.86825 9.682063 30.696375 9.728938 31.286219 C 9.775813 31.876063 9.850031 32.891688 9.896906 33.629969 C 9.943781 34.36825 10.018 35.6495 10.064875 36.598719 C 10.11175 37.547938 10.189875 39.208094 10.23675 40.481531 C 10.283625 41.751063 10.357844 43.977625 10.404719 45.770594 C 10.451594 47.563563 10.525813 50.68075 10.576594 53.403406 C 10.623469 56.126063 10.697688 60.739344 10.744563 65.391688 C 10.791438 70.044031 10.912531 86.93075 10.912531 86.93075 " transform="matrix(1,0,0,-1,76.232,100.212)"/>
<path style="fill:none;stroke-width:0.3985;stroke-linecap:butt;stroke-linejoin:miter;stroke:rgb(0%,0%,100%);stroke-opacity:1;stroke-miterlimit:10;" d="M 11.791438 -59.530187 C 11.791438 -59.530187 11.92425 -43.50675 11.975031 -39.108312 C 12.025813 -34.709875 12.107844 -30.38175 12.158625 -27.823156 C 12.209406 -25.264562 12.291438 -22.346594 12.342219 -20.666906 C 12.393 -18.987219 12.475031 -16.909094 12.525813 -15.721594 C 12.576594 -14.530187 12.658625 -12.983312 12.709406 -12.096594 C 12.760188 -11.209875 12.842219 -10.018469 12.893 -9.330969 C 12.943781 -8.643469 13.025813 -7.69425 13.076594 -7.147375 C 13.127375 -6.6005 13.209406 -5.830969 13.260188 -5.38175 C 13.310969 -4.936437 13.393 -4.295812 13.443781 -3.924719 C 13.494563 -3.553625 13.576594 -3.014562 13.627375 -2.702062 C 13.678156 -2.385656 13.760188 -1.928625 13.810969 -1.659094 C 13.86175 -1.389562 13.943781 -0.995031 13.994563 -0.760656 C 14.045344 -0.526281 14.127375 -0.182531 14.178156 0.0205938 C 14.228938 0.223719 14.310969 0.528406 14.36175 0.708094 C 14.412531 0.887781 14.494563 1.157313 14.545344 1.317469 C 14.596125 1.477625 14.678156 1.715906 14.728938 1.860438 C 14.779719 2.001063 14.86175 2.219813 14.912531 2.344813 C 14.963313 2.473719 15.045344 2.669031 15.096125 2.786219 C 15.146906 2.903406 15.228938 3.079188 15.279719 3.184656 C 15.3305 3.290125 15.412531 3.450281 15.463313 3.547938 C 15.514094 3.641688 15.596125 3.790125 15.646906 3.879969 C 15.697688 3.965906 15.779719 4.102625 15.8305 4.184656 C 15.881281 4.266688 15.963313 4.391688 16.014094 4.465906 C 16.064875 4.540125 16.146906 4.653406 16.197688 4.723719 C 16.248469 4.794031 16.3305 4.8995 16.381281 4.965906 C 16.432063 5.028406 16.514094 5.129969 16.564875 5.188563 C 16.615656 5.251063 16.697688 5.340906 16.748469 5.3995 C 16.79925 5.454188 16.881281 5.540125 16.932063 5.590906 C 16.982844 5.645594 17.064875 5.727625 17.115656 5.7745 C 17.166438 5.825281 17.248469 5.8995 17.29925 5.946375 C 17.350031 5.99325 17.432063 6.063563 17.482844 6.106531 C 17.533625 6.1495 17.615656 6.219813 17.666438 6.258875 C 17.717219 6.301844 17.79925 6.364344 17.850031 6.403406 C 17.900813 6.442469 17.982844 6.501063 18.033625 6.540125 C 18.084406 6.575281 18.166438 6.629969 18.217219 6.665125 C 18.268 6.700281 18.350031 6.754969 18.400813 6.786219 C 18.451594 6.821375 18.533625 6.872156 18.584406 6.903406 C 18.635188 6.934656 18.717219 6.981531 18.768 7.012781 C 18.818781 7.040125 18.900813 7.087 18.951594 7.11825 C 19.002375 7.145594 19.084406 7.188563 19.135188 7.215906 C 19.185969 7.24325 19.268 7.286219 19.318781 7.309656 C 19.369563 7.337 19.451594 7.376063 19.502375 7.403406 C 19.553156 7.426844 19.635188 7.465906 19.685969 7.489344 C 19.73675 7.512781 19.818781 7.547938 19.869563 7.571375 C 19.920344 7.594813 20.002375 7.629969 20.053156 7.6495 C 20.103938 7.672938 20.185969 7.704188 20.23675 7.727625 C 20.287531 7.747156 20.369563 7.778406 20.420344 7.797938 C 20.471125 7.817469 20.553156 7.848719 20.603938 7.86825 C 20.654719 7.887781 20.73675 7.919031 20.787531 7.938563 C 20.838313 7.954188 20.920344 7.985438 20.971125 8.001063 C 21.021906 8.020594 21.103938 8.047938 21.154719 8.063563 C 21.2055 8.083094 21.287531 8.106531 21.338313 8.126063 C 21.389094 8.141688 21.471125 8.165125 21.521906 8.18075 C 21.572688 8.196375 21.654719 8.223719 21.7055 8.239344 C 21.756281 8.254969 21.838313 8.278406 21.889094 8.294031 C 21.939875 8.30575 22.021906 8.329188 22.072688 8.344813 C 22.123469 8.360438 22.2055 8.379969 22.256281 8.395594 C 22.307063 8.407313 22.389094 8.43075 22.439875 8.442469 C 22.490656 8.458094 22.572688 8.477625 22.623469 8.489344 C 22.67425 8.504969 22.756281 8.5245 22.807063 8.536219 C 22.857844 8.547938 22.939875 8.567469 22.990656 8.579188 C 23.041438 8.590906 23.123469 8.610438 23.17425 8.622156 C 23.225031 8.633875 23.307063 8.653406 23.357844 8.665125 C 23.408625 8.676844 23.490656 8.692469 23.541438 8.704188 C 23.592219 8.715906 23.67425 8.731531 23.725031 8.74325 C 23.775813 8.754969 23.857844 8.770594 23.908625 8.782313 C 23.959406 8.790125 24.041438 8.809656 24.092219 8.817469 C 24.143 8.829188 24.225031 8.844813 24.275813 8.852625 C 24.326594 8.864344 24.408625 8.879969 24.459406 8.887781 C 24.510188 8.8995 24.592219 8.915125 24.643 8.922938 C 24.693781 8.93075 24.775813 8.946375 24.826594 8.954188 C 24.877375 8.965906 24.959406 8.977625 25.010188 8.989344 C 25.060969 8.997156 25.143 9.008875 25.193781 9.020594 C 25.244563 9.028406 25.326594 9.040125 25.377375 9.047938 C 25.428156 9.05575 25.510188 9.071375 25.560969 9.079188 C 25.61175 9.087 25.693781 9.098719 25.744563 9.106531 C 25.795344 9.114344 25.877375 9.126063 25.928156 9.133875 C 25.978938 9.141688 26.060969 9.157313 26.11175 9.165125 C 26.162531 9.169031 26.244563 9.18075 26.295344 9.188563 C 26.346125 9.196375 26.428156 9.208094 26.478938 9.215906 C 26.529719 9.223719 26.61175 9.235438 26.662531 9.239344 C 26.713313 9.247156 26.795344 9.258875 26.846125 9.266688 C 26.896906 9.2745 26.978938 9.282313 27.029719 9.290125 C 27.0805 9.297938 27.162531 9.30575 27.213313 9.313563 C 27.264094 9.321375 27.346125 9.329188 27.396906 9.337 C 27.447688 9.344813 27.529719 9.352625 27.5805 9.360438 C 27.631281 9.364344 27.713313 9.376063 27.764094 9.379969 C 27.814875 9.387781 27.896906 9.395594 27.947688 9.403406 C 27.998469 9.411219 28.0805 9.419031 28.131281 9.422938 C 28.182063 9.43075 28.264094 9.438563 28.314875 9.446375 C 28.365656 9.450281 28.447688 9.462 28.498469 9.465906 C 28.54925 9.469813 28.631281 9.481531 28.682063 9.485438 C 28.732844 9.489344 28.814875 9.501063 28.865656 9.504969 C 28.916438 9.508875 28.998469 9.520594 29.04925 9.5245 C 29.100031 9.528406 29.182063 9.536219 29.232844 9.544031 C 29.283625 9.547938 29.365656 9.55575 29.416438 9.559656 C 29.467219 9.567469 29.54925 9.575281 29.600031 9.579188 C 29.650813 9.583094 29.732844 9.590906 29.783625 9.594813 C 29.834406 9.598719 29.916438 9.606531 29.967219 9.614344 C 30.018 9.61825 30.100031 9.626063 30.150813 9.629969 C 30.201594 9.633875 30.283625 9.641688 30.334406 9.645594 C 30.385188 9.6495 30.467219 9.657313 30.518 9.661219 C 30.568781 9.669031 30.650813 9.672938 30.701594 9.68075 C 30.752375 9.684656 30.834406 9.688563 30.885188 9.696375 C 30.935969 9.700281 31.018 9.704188 31.068781 9.708094 C 31.119563 9.712 31.201594 9.719813 31.252375 9.723719 C 31.303156 9.727625 31.385188 9.735438 31.435969 9.739344 C 31.48675 9.74325 31.568781 9.751063 31.619563 9.754969 C 31.670344 9.758875 31.752375 9.762781 31.803156 9.766688 C 31.853938 9.770594 31.935969 9.778406 31.98675 9.782313 C 32.037531 9.786219 32.119563 9.790125 32.170344 9.794031 C 32.221125 9.797938 32.303156 9.80575 32.353938 9.809656 C 32.404719 9.813563 32.48675 9.817469 32.537531 9.821375 C 32.588313 9.825281 32.670344 9.833094 32.721125 9.837 C 32.771906 9.840906 32.853938 9.844813 32.904719 9.848719 C 32.9555 9.852625 33.037531 9.856531 33.088313 9.860438 C 33.139094 9.864344 33.221125 9.86825 33.271906 9.872156 C 33.322688 9.876063 33.404719 9.879969 33.4555 9.883875 C 33.506281 9.887781 33.588313 9.895594 33.639094 9.895594 C 33.689875 9.8995 33.771906 9.907313 33.822688 9.907313 C 33.873469 9.911219 33.9555 9.919031 34.006281 9.919031 C 34.057063 9.922938 34.139094 9.93075 34.189875 9.93075 C 34.240656 9.934656 34.322688 9.938563 34.373469 9.942469 C 34.42425 9.946375 34.506281 9.950281 34.557063 9.954188 C 34.607844 9.958094 34.689875 9.962 34.740656 9.965906 C 34.791438 9.969813 34.873469 9.973719 34.92425 9.973719 C 34.975031 9.977625 35.057063 9.981531 35.107844 9.985438 C 35.158625 9.989344 35.240656 9.99325 35.291438 9.997156 C 35.342219 10.001063 35.42425 10.004969 35.475031 10.008875 C 35.525813 10.008875 35.607844 10.012781 35.658625 10.016688 C 35.709406 10.020594 35.791438 10.0245 35.842219 10.028406 C 35.893 10.028406 35.975031 10.032313 36.025813 10.036219 C 36.076594 10.040125 36.158625 10.044031 36.209406 10.047938 C 36.260188 10.047938 36.342219 10.051844 36.393 10.05575 C 36.443781 10.059656 36.525813 10.063563 36.576594 10.063563 C 36.627375 10.067469 36.709406 10.071375 36.760188 10.075281 C 36.810969 10.075281 36.893 10.079188 36.943781 10.083094 C 36.994563 10.087 37.076594 10.090906 37.127375 10.090906 C 37.178156 10.094813 37.260188 10.098719 37.310969 10.102625 C 37.36175 10.102625 37.443781 10.106531 37.494563 10.110438 C 37.545344 10.110438 37.627375 10.114344 37.678156 10.11825 C 37.728938 10.122156 37.810969 10.126063 37.86175 10.126063 C 37.912531 10.129969 37.994563 10.133875 38.045344 10.133875 C 38.096125 10.137781 38.178156 10.141688 38.228938 10.141688 C 38.279719 10.145594 38.36175 10.1495 38.412531 10.153406 C 38.463313 10.153406 38.545344 10.157313 38.596125 10.161219 C 38.646906 10.161219 38.728938 10.165125 38.779719 10.169031 C 38.8305 10.169031 38.912531 10.172938 38.963313 10.176844 C 39.014094 10.176844 39.096125 10.18075 39.146906 10.184656 C 39.197688 10.184656 39.279719 10.188563 39.3305 10.192469 C 39.381281 10.192469 39.463313 10.196375 39.514094 10.196375 C 39.564875 10.200281 39.646906 10.204188 39.697688 10.204188 C 39.748469 10.208094 39.8305 10.212 39.881281 10.212 C 39.932063 10.215906 40.014094 10.219813 40.064875 10.219813 C 40.115656 10.223719 40.197688 10.223719 40.248469 10.227625 C 40.29925 10.227625 40.381281 10.231531 40.432063 10.235438 C 40.482844 10.235438 40.564875 10.239344 40.615656 10.239344 C 40.666438 10.24325 40.748469 10.247156 40.79925 10.247156 C 40.850031 10.251063 40.932063 10.251063 40.982844 10.254969 C 41.033625 10.254969 41.115656 10.258875 41.166438 10.262781 C 41.217219 10.262781 41.29925 10.266688 41.350031 10.266688 C 41.400813 10.270594 41.482844 10.2745 41.533625 10.2745 C 41.584406 10.2745 41.666438 10.278406 41.717219 10.282313 C 41.768 10.282313 41.850031 10.286219 41.900813 10.286219 C 41.951594 10.290125 42.033625 10.290125 42.084406 10.294031 C 42.135188 10.294031 42.217219 10.297938 42.268 10.297938 C 42.318781 10.301844 42.396906 10.30575 42.451594 10.30575 C 42.502375 10.30575 42.584406 10.309656 42.635188 10.313563 C 42.685969 10.313563 42.768 10.317469 42.818781 10.317469 C 42.869563 10.317469 42.951594 10.321375 43.002375 10.325281 C 43.053156 10.325281 43.135188 10.329188 43.185969 10.329188 C 43.23675 10.329188 43.318781 10.333094 43.369563 10.333094 C 43.420344 10.337 43.502375 10.340906 43.553156 10.340906 C 43.603938 10.340906 43.685969 10.344813 43.73675 10.344813 C 43.787531 10.348719 43.869563 10.352625 43.920344 10.352625 C 43.971125 10.352625 44.053156 10.356531 44.103938 10.356531 C 44.154719 10.360438 44.23675 10.360438 44.287531 10.364344 C 44.338313 10.364344 44.416438 10.36825 44.471125 10.36825 C 44.521906 10.372156 44.603938 10.372156 44.654719 10.372156 C 44.7055 10.376063 44.783625 10.376063 44.838313 10.379969 C 44.889094 10.379969 44.971125 10.383875 45.021906 10.383875 C 45.072688 10.383875 45.154719 10.387781 45.2055 10.387781 C 45.256281 10.391688 45.334406 10.391688 45.385188 10.395594 C 45.439875 10.395594 45.518 10.3995 45.572688 10.3995 C 45.623469 10.3995 45.7055 10.403406 45.756281 10.403406 C 45.807063 10.407313 45.889094 10.407313 45.939875 10.411219 C 45.990656 10.411219 46.068781 10.415125 46.123469 10.415125 C 46.17425 10.415125 46.252375 10.419031 46.303156 10.419031 C 46.353938 10.419031 46.435969 10.422938 46.490656 10.422938 C 46.541438 10.426844 46.623469 10.426844 46.67425 10.43075 C 46.725031 10.43075 46.803156 10.43075 46.857844 10.434656 C 46.908625 10.434656 46.98675 10.438563 47.037531 10.438563 C 47.088313 10.438563 47.170344 10.442469 47.221125 10.442469 C 47.271906 10.442469 47.353938 10.446375 47.404719 10.446375 C 47.459406 10.450281 47.537531 10.450281 47.592219 10.450281 C 47.643 10.454188 47.721125 10.454188 47.771906 10.458094 C 47.826594 10.458094 47.904719 10.458094 47.9555 10.462 C 48.006281 10.462 48.088313 10.465906 48.139094 10.465906 C 48.193781 10.465906 48.271906 10.469813 48.322688 10.469813 C 48.373469 10.469813 48.4555 10.473719 48.510188 10.473719 C 48.560969 10.473719 48.639094 10.477625 48.689875 10.477625 C 48.740656 10.477625 48.822688 10.481531 48.877375 10.481531 C 48.928156 10.485438 49.006281 10.485438 49.057063 10.485438 C 49.107844 10.489344 49.189875 10.489344 49.240656 10.489344 C 49.291438 10.49325 49.373469 10.49325 49.42425 10.49325 C 49.478938 10.497156 49.557063 10.497156 49.61175 10.497156 C 49.662531 10.501063 49.740656 10.501063 49.791438 10.501063 C 49.846125 10.504969 49.92425 10.504969 49.975031 10.504969 C 50.025813 10.508875 50.107844 10.508875 50.158625 10.508875 C 50.209406 10.512781 50.291438 10.512781 50.342219 10.512781 C 50.393 10.516688 50.475031 10.516688 50.529719 10.516688 C 50.5805 10.520594 50.658625 10.520594 50.709406 10.520594 C 50.760188 10.5245 50.842219 10.5245 50.893 10.5245 C 50.943781 10.528406 51.025813 10.528406 51.076594 10.528406 C 51.127375 10.532313 51.209406 10.532313 51.260188 10.532313 C 51.310969 10.536219 51.393 10.536219 51.443781 10.536219 C 51.498469 10.540125 51.576594 10.540125 51.627375 10.540125 C 51.678156 10.540125 51.760188 10.544031 51.810969 10.544031 C 51.86175 10.544031 51.943781 10.547938 51.994563 10.547938 C 52.045344 10.547938 52.127375 10.551844 52.178156 10.551844 C 52.228938 10.551844 52.310969 10.55575 52.36175 10.55575 C 52.412531 10.55575 52.494563 10.559656 52.545344 10.559656 C 52.596125 10.559656 52.678156 10.559656 52.728938 10.563563 C 52.779719 10.563563 52.86175 10.563563 52.912531 10.567469 C 52.963313 10.567469 53.045344 10.567469 53.096125 10.567469 C 53.146906 10.571375 53.228938 10.571375 53.279719 10.571375 C 53.3305 10.575281 53.412531 10.575281 53.463313 10.575281 C 53.514094 10.575281 53.596125 10.579188 53.646906 10.579188 C 53.697688 10.579188 53.779719 10.583094 53.8305 10.583094 C 53.881281 10.583094 53.963313 10.583094 54.014094 10.587 C 54.064875 10.587 54.146906 10.587 54.197688 10.587 C 54.248469 10.590906 54.3305 10.590906 54.381281 10.590906 C 54.432063 10.594813 54.514094 10.594813 54.564875 10.594813 C 54.615656 10.594813 54.697688 10.598719 54.748469 10.598719 C 54.79925 10.598719 54.881281 10.598719 54.932063 10.602625 C 54.982844 10.602625 55.064875 10.602625 55.115656 10.602625 C 55.166438 10.606531 55.248469 10.606531 55.29925 10.606531 C 55.350031 10.606531 55.432063 10.610438 55.482844 10.610438 C 55.533625 10.610438 55.615656 10.614344 55.666438 10.614344 C 55.717219 10.614344 55.79925 10.614344 55.850031 10.61825 C 55.900813 10.61825 55.982844 10.61825 56.033625 10.61825 C 56.084406 10.622156 56.166438 10.622156 56.217219 10.622156 C 56.268 10.622156 56.350031 10.626063 56.400813 10.626063 C 56.451594 10.626063 56.533625 10.626063 56.584406 10.629969 C 56.635188 10.629969 56.717219 10.629969 56.768 10.629969 C 56.818781 10.633875 56.900813 10.633875 56.951594 10.633875 C 57.002375 10.633875 57.084406 10.637781 57.135188 10.637781 C 57.185969 10.637781 57.268 10.637781 57.318781 10.637781 C 57.369563 10.641688 57.451594 10.641688 57.502375 10.641688 C 57.553156 10.641688 57.635188 10.645594 57.685969 10.645594 C 57.73675 10.645594 57.818781 10.645594 57.869563 10.6495 C 57.920344 10.6495 58.002375 10.6495 58.053156 10.6495 C 58.103938 10.653406 58.185969 10.653406 58.23675 10.653406 C 58.287531 10.653406 58.369563 10.653406 58.420344 10.657313 C 58.471125 10.657313 58.553156 10.657313 58.603938 10.657313 C 58.654719 10.661219 58.73675 10.661219 58.787531 10.661219 C 58.838313 10.661219 58.920344 10.665125 58.971125 10.665125 C 59.021906 10.665125 59.103938 10.665125 59.154719 10.665125 C 59.2055 10.669031 59.287531 10.669031 59.338313 10.669031 C 59.389094 10.669031 59.471125 10.669031 59.521906 10.672938 C 59.572688 10.672938 59.654719 10.672938 59.7055 10.672938 C 59.756281 10.672938 59.838313 10.676844 59.889094 10.676844 C 59.939875 10.676844 60.021906 10.676844 60.072688 10.68075 C 60.123469 10.68075 60.2055 10.68075 60.256281 10.68075 C 60.307063 10.68075 60.389094 10.684656 60.439875 10.684656 C 60.490656 10.684656 60.572688 10.684656 60.623469 10.684656 C 60.67425 10.688563 60.756281 10.688563 60.807063 10.688563 C 60.857844 10.688563 60.939875 10.692469 60.990656 10.692469 C 61.041438 10.692469 61.123469 10.692469 61.17425 10.692469 C 61.225031 10.692469 61.307063 10.696375 61.357844 10.696375 C 61.408625 10.696375 61.490656 10.696375 61.541438 10.700281 C 61.592219 10.700281 61.67425 10.700281 61.725031 10.700281 C 61.775813 10.700281 61.857844 10.704188 61.908625 10.704188 C 61.959406 10.704188 62.041438 10.704188 62.092219 10.704188 C 62.143 10.704188 62.225031 10.708094 62.275813 10.708094 C 62.326594 10.708094 62.408625 10.708094 62.459406 10.712 C 62.510188 10.712 62.592219 10.712 62.643 10.712 C 62.693781 10.712 62.775813 10.712 62.826594 10.715906 C 62.877375 10.715906 62.959406 10.715906 63.010188 10.715906 C 63.060969 10.715906 63.143 10.719813 63.193781 10.719813 C 63.244563 10.719813 63.326594 10.719813 63.377375 10.719813 C 63.428156 10.719813 63.510188 10.723719 63.560969 10.723719 C 63.61175 10.723719 63.693781 10.723719 63.744563 10.723719 C 63.795344 10.727625 63.877375 10.727625 63.928156 10.727625 C 63.978938 10.727625 64.060969 10.727625 64.11175 10.727625 C 64.162531 10.731531 64.244563 10.731531 64.295344 10.731531 C 64.346125 10.731531 64.428156 10.731531 64.478938 10.735438 C 64.529719 10.735438 64.61175 10.735438 64.662531 10.735438 C 64.713313 10.735438 64.795344 10.739344 64.846125 10.739344 C 64.896906 10.739344 64.978938 10.739344 65.029719 10.739344 C 65.0805 10.739344 65.162531 10.74325 65.213313 10.74325 C 65.264094 10.74325 65.346125 10.74325 65.396906 10.74325 C 65.447688 10.74325 65.529719 10.747156 65.5805 10.747156 C 65.631281 10.747156 65.713313 10.747156 65.764094 10.747156 C 65.814875 10.747156 65.896906 10.751063 65.947688 10.751063 C 65.998469 10.751063 66.0805 10.751063 66.131281 10.751063 C 66.182063 10.751063 66.264094 10.754969 66.314875 10.754969 C 66.365656 10.754969 66.447688 10.754969 66.498469 10.754969 C 66.54925 10.754969 66.631281 10.758875 66.682063 10.758875 C 66.732844 10.758875 66.814875 10.758875 66.865656 10.758875 C 66.916438 10.758875 66.998469 10.762781 67.04925 10.762781 C 67.100031 10.762781 67.182063 10.762781 67.232844 10.762781 C 67.283625 10.762781 67.365656 10.766688 67.416438 10.766688 C 67.467219 10.766688 67.54925 10.766688 67.600031 10.766688 C 67.650813 10.766688 67.732844 10.770594 67.783625 10.770594 C 67.834406 10.770594 67.916438 10.770594 67.967219 10.770594 C 68.018 10.770594 68.100031 10.770594 68.150813 10.7745 C 68.201594 10.7745 68.283625 10.7745 68.334406 10.7745 C 68.385188 10.7745 68.467219 10.7745 68.518 10.778406 C 68.568781 10.778406 68.650813 10.778406 68.701594 10.778406 C 68.752375 10.778406 68.834406 10.778406 68.885188 10.778406 C 68.935969 10.782313 69.018 10.782313 69.068781 10.782313 C 69.119563 10.782313 69.201594 10.782313 69.252375 10.782313 C 69.303156 10.782313 69.385188 10.786219 69.435969 10.786219 C 69.48675 10.786219 69.568781 10.786219 69.619563 10.786219 C 69.670344 10.786219 69.752375 10.790125 69.803156 10.790125 C 69.853938 10.790125 69.935969 10.790125 69.98675 10.790125 C 70.037531 10.790125 70.119563 10.794031 70.170344 10.794031 C 70.221125 10.794031 70.303156 10.794031 70.353938 10.794031 C 70.404719 10.794031 70.48675 10.794031 70.537531 10.794031 C 70.588313 10.797938 70.670344 10.797938 70.721125 10.797938 C 70.771906 10.797938 70.853938 10.797938 70.904719 10.797938 C 70.9555 10.797938 71.037531 10.801844 71.088313 10.801844 C 71.139094 10.801844 71.221125 10.801844 71.271906 10.801844 C 71.322688 10.801844 71.404719 10.801844 71.4555 10.80575 C 71.506281 10.80575 71.588313 10.80575 71.639094 10.80575 C 71.689875 10.80575 71.771906 10.80575 71.822688 10.80575 C 71.873469 10.809656 71.9555 10.809656 72.006281 10.809656 C 72.057063 10.809656 72.139094 10.809656 72.189875 10.809656 C 72.240656 10.809656 72.322688 10.813563 72.373469 10.813563 C 72.42425 10.813563 72.506281 10.813563 72.557063 10.813563 C 72.607844 10.813563 72.689875 10.813563 72.740656 10.813563 C 72.791438 10.817469 72.873469 10.817469 72.92425 10.817469 C 72.975031 10.817469 73.057063 10.817469 73.107844 10.817469 C 73.158625 10.817469 73.240656 10.821375 73.291438 10.821375 C 73.342219 10.821375 73.42425 10.821375 73.475031 10.821375 C 73.525813 10.821375 73.607844 10.821375 73.658625 10.821375 C 73.709406 10.825281 73.791438 10.825281 73.842219 10.825281 C 73.893 10.825281 73.975031 10.825281 74.025813 10.825281 C 74.076594 10.825281 74.158625 10.825281 74.209406 10.829188 C 74.260188 10.829188 74.342219 10.829188 74.393 10.829188 C 74.443781 10.829188 74.525813 10.829188 74.576594 10.829188 C 74.627375 10.829188 74.709406 10.833094 74.760188 10.833094 C 74.810969 10.833094 74.893 10.833094 74.943781 10.833094 C 74.994563 10.833094 75.076594 10.833094 75.127375 10.833094 C 75.178156 10.833094 75.260188 10.837 75.310969 10.837 C 75.36175 10.837 75.443781 10.837 75.494563 10.837 C 75.545344 10.837 75.627375 10.840906 75.678156 10.840906 C 75.728938 10.840906 75.810969 10.840906 75.86175 10.840906 C 75.912531 10.840906 75.994563 10.840906 76.045344 10.840906 C 76.096125 10.840906 76.178156 10.844813 76.228938 10.844813 C 76.279719 10.844813 76.36175 10.844813 76.412531 10.844813 C 76.463313 10.844813 76.545344 10.844813 76.596125 10.844813 C 76.646906 10.844813 76.728938 10.848719 76.779719 10.848719 C 76.8305 10.848719 76.912531 10.848719 76.963313 10.848719 C 77.014094 10.848719 77.096125 10.848719 77.146906 10.848719 C 77.197688 10.848719 77.279719 10.852625 77.3305 10.852625 C 77.381281 10.852625 77.463313 10.852625 77.514094 10.852625 C 77.564875 10.852625 77.646906 10.852625 77.697688 10.852625 C 77.748469 10.852625 77.8305 10.856531 77.881281 10.856531 C 77.932063 10.856531 78.014094 10.856531 78.064875 10.856531 C 78.115656 10.856531 78.197688 10.856531 78.248469 10.856531 C 78.29925 10.860438 78.381281 10.860438 78.432063 10.860438 C 78.482844 10.860438 78.564875 10.860438 78.615656 10.860438 C 78.666438 10.860438 78.748469 10.860438 78.79925 10.860438 C 78.850031 10.864344 78.932063 10.864344 78.982844 10.864344 C 79.033625 10.864344 79.115656 10.864344 79.166438 10.864344 C 79.217219 10.864344 79.29925 10.864344 79.350031 10.864344 C 79.400813 10.86825 79.482844 10.86825 79.533625 10.86825 C 79.584406 10.86825 79.666438 10.86825 79.717219 10.86825 C 79.768 10.86825 79.850031 10.86825 79.900813 10.86825 C 79.951594 10.86825 80.033625 10.872156 80.084406 10.872156 C 80.135188 10.872156 80.217219 10.872156 80.268 10.872156 C 80.318781 10.872156 80.400813 10.872156 80.451594 10.872156 C 80.502375 10.872156 80.584406 10.876063 80.635188 10.876063 C 80.685969 10.876063 80.768 10.876063 80.818781 10.876063 C 80.869563 10.876063 80.951594 10.876063 81.002375 10.876063 C 81.053156 10.876063 81.135188 10.879969 81.185969 10.879969 C 81.23675 10.879969 81.318781 10.879969 81.369563 10.879969 C 81.420344 10.879969 81.502375 10.879969 81.553156 10.879969 C 81.603938 10.879969 81.685969 10.879969 81.73675 10.883875 C 81.787531 10.883875 81.869563 10.883875 81.920344 10.883875 C 81.971125 10.883875 82.053156 10.883875 82.103938 10.883875 C 82.154719 10.883875 82.23675 10.883875 82.287531 10.883875 C 82.338313 10.887781 82.420344 10.887781 82.471125 10.887781 C 82.521906 10.887781 82.603938 10.887781 82.654719 10.887781 C 82.7055 10.887781 82.787531 10.887781 82.838313 10.887781 C 82.889094 10.887781 82.971125 10.891688 83.021906 10.891688 C 83.072688 10.891688 83.154719 10.891688 83.2055 10.891688 C 83.256281 10.891688 83.338313 10.891688 83.389094 10.891688 C 83.439875 10.891688 83.521906 10.891688 83.572688 10.891688 C 83.623469 10.895594 83.7055 10.895594 83.756281 10.895594 C 83.807063 10.895594 83.889094 10.895594 83.939875 10.895594 C 83.990656 10.895594 84.072688 10.895594 84.123469 10.895594 C 84.17425 10.895594 84.256281 10.8995 84.307063 10.8995 C 84.357844 10.8995 84.439875 10.8995 84.490656 10.8995 C 84.541438 10.8995 84.623469 10.8995 84.67425 10.8995 C 84.725031 10.8995 84.807063 10.8995 84.857844 10.903406 C 84.908625 10.903406 85.041438 10.903406 85.041438 10.903406 " transform="matrix(1,0,0,-1,76.232,100.212)"/>
<path style="fill-rule:nonzero;fill:rgb(100%,100%,100%);fill-opacity:1;stroke-width:0.3985;stroke-linecap:butt;stroke-linejoin:miter;stroke:rgb(0%,0%,0%);stroke-opacity:1;stroke-miterlimit:10;" d="M 2.834406 0.0010625 C 2.834406 1.567469 1.564875 2.833094 -0.00153125 2.833094 C -1.564031 2.833094 -2.833562 1.567469 -2.833562 0.0010625 C -2.833562 -1.565344 -1.564031 -2.834875 -0.00153125 -2.834875 C 1.564875 -2.834875 2.834406 -1.565344 2.834406 0.0010625 Z M 2.834406 0.0010625 " transform="matrix(1,0,0,-1,76.232,100.212)"/>
<path style="fill-rule:nonzero;fill:rgb(100%,100%,100%);fill-opacity:1;stroke-width:0.3985;stroke-linecap:butt;stroke-linejoin:miter;stroke:rgb(0%,0%,0%);stroke-opacity:1;stroke-miterlimit:10;" d="M 31.182063 28.348719 C 31.182063 29.911219 29.912531 31.18075 28.346125 31.18075 C 26.779719 31.18075 25.510188 29.911219 25.510188 28.348719 C 25.510188 26.782313 26.779719 25.512781 28.346125 25.512781 C 29.912531 25.512781 31.182063 26.782313 31.182063 28.348719 Z M 31.182063 28.348719 " transform="matrix(1,0,0,-1,76.232,100.212)"/>
<path style=" stroke:none;fill-rule:nonzero;fill:rgb(0%,0%,0%);fill-opacity:1;" d="M 79.066406 71.863281 C 79.066406 70.300781 77.796875 69.03125 76.230469 69.03125 C 74.667969 69.03125 73.398438 70.300781 73.398438 71.863281 C 73.398438 73.429688 74.667969 74.699219 76.230469 74.699219 C 77.796875 74.699219 79.066406 73.429688 79.066406 71.863281 Z M 79.066406 71.863281 "/>
<path style=" stroke:none;fill-rule:nonzero;fill:rgb(0%,0%,0%);fill-opacity:1;" d="M 107.414062 100.210938 C 107.414062 98.644531 106.144531 97.378906 104.578125 97.378906 C 103.011719 97.378906 101.742188 98.644531 101.742188 100.210938 C 101.742188 101.777344 103.011719 103.046875 104.578125 103.046875 C 106.144531 103.046875 107.414062 101.777344 107.414062 100.210938 Z M 107.414062 100.210938 "/>
</g>
</svg>
